<?xml version="1.0" encoding="iso-8859-1"?>
<!-- Generator: Adobe Illustrator 22.0.0, SVG Export Plug-In . SVG Version: 6.00 Build 0)  -->
<svg version="1.1" id="Capa_1" xmlns="http://www.w3.org/2000/svg" xmlns:xlink="http://www.w3.org/1999/xlink" x="0px" y="0px"
	 viewBox="-49 141 185.016 177.517" style="enable-background:new -49 141 185.016 177.517;" xml:space="preserve">
<path style="fill:#FFFFFF;" d="M29.027,192.693c-23.16,0-47.775-5.746-47.775-16.396s24.615-16.396,47.775-16.396
	s47.775,5.747,47.775,16.396S52.187,192.693,29.027,192.693z M29.027,163.901c-12.029,0-23.311,1.465-31.768,4.125
	c-7.406,2.329-12.007,5.499-12.007,8.271s4.601,5.942,12.007,8.271c8.457,2.659,19.739,4.124,31.768,4.124
	s23.311-1.465,31.768-4.124c7.406-2.329,12.007-5.499,12.007-8.271s-4.601-5.942-12.007-8.271
	C52.338,165.366,41.056,163.901,29.027,163.901z"/>
<path style="fill:#FFFFFF;" d="M39.921,184.13c-3.031,0-6.552-0.576-10.216-2.11c-8.117-3.398-14.487-0.101-14.754,0.042
	c-0.972,0.516-2.183,0.153-2.705-0.817c-0.521-0.97-0.165-2.176,0.803-2.702c0.332-0.181,8.256-4.376,18.201-0.212
	c7.341,3.073,13.375,1.45,14.605,0.651c0.528-0.711,1.488-1.008,2.348-0.664c1.026,0.41,1.525,1.574,1.115,2.599
	c-0.32,0.801-1.084,1.433-2.405,1.986C45.221,183.613,42.791,184.13,39.921,184.13z"/>
<path style="fill:#FFFFFF;" d="M39.921,176.092c-3.031,0-6.552-0.576-10.216-2.11c-8.115-3.396-14.487-0.1-14.754,0.042
	c-0.972,0.516-2.183,0.153-2.704-0.817c-0.521-0.97-0.165-2.176,0.802-2.702c0.332-0.181,8.254-4.376,18.201-0.213
	c7.341,3.073,13.374,1.451,14.605,0.651c0.528-0.711,1.488-1.009,2.348-0.664c1.026,0.41,1.525,1.574,1.115,2.599
	c-0.32,0.801-1.084,1.433-2.405,1.986C45.22,175.575,42.791,176.092,39.921,176.092z"/>
<g>
	<path style="fill:#FFFFFF;" d="M54.4,250.524c-16.045,0-31.156-1.987-42.551-5.596c-12.28-3.89-18.771-9.143-18.771-15.192
		s6.491-11.303,18.771-15.192c11.395-3.609,26.506-5.597,42.551-5.597c16.045,0,31.156,1.987,42.551,5.597
		c12.28,3.889,18.771,9.143,18.771,15.192s-6.491,11.303-18.771,15.192C85.556,248.537,70.445,250.524,54.4,250.524z M54.4,212.947
		c-33.781,0-57.322,8.848-57.322,16.789s23.541,16.789,57.322,16.789s57.322-8.848,57.322-16.789S88.181,212.947,54.4,212.947z"/>
</g>
<path style="fill:#FFFFFF;" d="M55.466,307.131c-17.122,0-33.247-2.185-45.404-6.152c-13.038-4.254-19.93-9.965-19.93-16.515
	v-44.395c0-0.839,0.523-1.588,1.311-1.877c0.789-0.29,1.672-0.057,2.214,0.583c7.564,8.909,34.137,15.628,61.809,15.628
	c34.94,0,56.422-10.871,61.755-17.723c0.524-0.674,1.42-0.942,2.228-0.663c0.808,0.277,1.351,1.037,1.351,1.892v46.556
	c0,6.55-6.892,12.261-19.929,16.515C88.713,304.946,72.588,307.131,55.466,307.131z M-5.867,244.588v39.875
	c0,4.452,6.419,9.204,17.17,12.712c11.767,3.84,27.451,5.955,44.163,5.955s32.396-2.115,44.163-5.955
	c10.751-3.508,17.17-8.261,17.17-12.712v-41.801c-4.203,3.364-10.508,6.591-18.087,9.194c-8.691,2.986-23.25,6.545-43.246,6.545
	C29.554,258.403,5.156,252.759-5.867,244.588z"/>
<path style="fill:#FFFFFF;" d="M67.961,239.352c-3.878,0-8.394-0.74-13.1-2.71c-10.962-4.588-19.687,0.028-19.773,0.076
	c-0.972,0.528-2.186,0.167-2.712-0.802c-0.527-0.971-0.168-2.185,0.802-2.712c0.423-0.231,10.515-5.574,23.229-0.25
	c10.081,4.22,18.274,1.821,19.728,0.736c0.514-0.771,1.514-1.106,2.408-0.748c1.025,0.41,1.524,1.574,1.114,2.6
	c-0.222,0.556-0.755,1.395-2.809,2.256C74.698,238.697,71.612,239.352,67.961,239.352z M75.944,234.051
	c0,0.001-0.001,0.002-0.001,0.003C75.943,234.054,75.943,234.052,75.944,234.051z"/>
<path style="fill:#FFFFFF;" d="M67.961,228.861c-3.878,0-8.394-0.74-13.1-2.71c-10.962-4.587-19.687,0.029-19.773,0.076
	c-0.972,0.528-2.186,0.168-2.712-0.802c-0.527-0.971-0.168-2.185,0.802-2.712c0.423-0.231,10.515-5.573,23.229-0.25
	c10.081,4.219,18.274,1.821,19.728,0.736c0.514-0.772,1.514-1.106,2.408-0.748c1.025,0.41,1.524,1.574,1.114,2.6
	c-0.222,0.556-0.755,1.395-2.809,2.256C74.698,228.206,71.612,228.861,67.961,228.861z M75.944,223.561
	c0,0.001-0.001,0.002-0.001,0.003C75.943,223.563,75.943,223.562,75.944,223.561z"/>
<path style="fill:#FFFFFF;" d="M-2.922,229.736c0-0.263,0.03-0.527,0.081-0.792c-8.887-2.673-14.102-6.26-14.102-9.65v-29.686
	c8.968,6.05,27.56,10.185,47.246,10.185c23.702,0,39.738-6.12,47.246-11.632v26.284c1.37,0.187,2.697,0.394,4,0.611v-31.434
	c0-0.852-0.54-1.61-1.344-1.889c-0.806-0.279-1.697-0.019-2.226,0.649c-1.793,2.27-6.727,5.717-15.196,8.584
	c-6.504,2.202-17.419,4.826-32.48,4.826c-24.387,0-42.794-6.09-47.731-11.82c-0.546-0.633-1.427-0.861-2.211-0.569
	c-0.784,0.291-1.304,1.039-1.304,1.875v34.015c0,6.448,8.187,11.242,19.727,14.226C-2.334,232.262-2.922,230.988-2.922,229.736z"/>
</svg>
