<?xml version="1.0" encoding="iso-8859-1"?>
<!-- Generator: Adobe Illustrator 22.0.0, SVG Export Plug-In . SVG Version: 6.00 Build 0)  -->
<svg version="1.1" id="Capa_1" xmlns="http://www.w3.org/2000/svg" xmlns:xlink="http://www.w3.org/1999/xlink" x="0px" y="0px"
	 viewBox="-49 141 185.016 177.517" style="enable-background:new -49 141 185.016 177.517;" xml:space="preserve">
<path style="fill:#FFFFFF;stroke:#FFFFFF;stroke-width:4;stroke-miterlimit:10;" d="M52.782,307.127l52.415-55.037l15.767-15.767
	c0.35-0.351,0.544-0.817,0.544-1.313v-15.67c-0.009-0.041-0.016-0.092-0.018-0.15c-0.004-0.214-0.039-0.411-0.106-0.599
	c-0.019-0.031-0.036-0.063-0.051-0.096c-0.175-0.365-0.485-0.682-0.863-0.875c-0.075-0.04-0.132-0.068-0.191-0.092
	c-0.201-0.08-0.418-0.124-0.64-0.128l-19.651,0c-0.148,0.012-0.294,0.042-0.434,0.091l-0.251,0.086l-0.25-0.086
	c-0.141-0.049-0.287-0.079-0.435-0.091c-6.566-0.033-11.917-4.987-12.453-11.534l-0.029-0.355l34.827-34.827
	c0.348-0.351,0.543-0.82,0.546-1.319v-15.666c-0.009-0.041-0.016-0.092-0.018-0.15c-0.004-0.214-0.039-0.411-0.106-0.598
	c-0.019-0.031-0.036-0.063-0.051-0.096c-0.08-0.174-0.191-0.339-0.327-0.483c-0.03-0.029-0.076-0.071-0.125-0.111l-0.023-0.02
	c-0.116-0.102-0.245-0.189-0.383-0.258c-0.079-0.043-0.137-0.07-0.196-0.094c-0.201-0.08-0.418-0.124-0.64-0.128l-84.007,0
	c-0.496,0-0.962,0.193-1.312,0.544l-68.261,68.261c-0.149,0.154-0.268,0.332-0.356,0.528c-0.082,0.207-0.142,0.451-0.165,0.701
	c-0.004,0.062-0.017,0.122-0.029,0.167v15.676c0,1.024,0.833,1.857,1.856,1.857h19.692c6.932,0.007,12.577,5.652,12.585,12.584
	v3.171l-33.589,33.589c-0.347,0.351-0.542,0.82-0.545,1.318v15.749c0,1.024,0.833,1.856,1.856,1.856h84.02
	c0.227,0,0.449-0.041,0.66-0.123c0.035-0.024,0.079-0.052,0.133-0.078c0.208-0.096,0.386-0.22,0.541-0.374L52.782,307.127z
	 M117.795,234.241l-15.25,15.25l-49.304,51.77v-10.37l0.212-0.223l51.743-54.332l12.598-12.598V234.241z M117.795,168.6
	l-0.225,0.225l-64.328,64.328V222.65l0.225-0.225l64.328-64.329V168.6z M36.4,155.471h78.771l-64.554,64.554h-78.77L36.4,155.471z
	 M-0.359,260.496v15.212c-0.008,6.931-5.652,12.576-12.584,12.584h-15.212L-0.359,260.496z M49.529,304.046h-80.308v-12.041h17.836
	c8.976-0.01,16.287-7.322,16.297-16.298v-23.63c-0.01-8.975-7.322-16.287-16.298-16.297h-17.835v-12.041h80.308v12.041H31.693
	c-8.976,0.011-16.287,7.322-16.297,16.298v23.63c0.011,8.976,7.322,16.287,16.298,16.297h17.835V304.046z M50.589,288.292H31.693
	c-6.932-0.008-12.577-5.653-12.585-12.584v-23.632c0.008-6.932,5.652-12.577,12.584-12.584h19.693
	c0.495-0.002,0.962-0.195,1.315-0.546l30.116-30.116l0.396,1.175c2.231,6.623,8.421,11.084,15.408,11.107
	c0.147-0.012,0.293-0.042,0.433-0.09l0.25-0.086l0.251,0.086c0.141,0.048,0.287,0.079,0.434,0.091h15.183l-12.631,12.631
	L50.589,288.292z"/>
<path style="fill:#FFFFFF;stroke:#FFFFFF;stroke-width:4;stroke-miterlimit:10;" d="M43.508,231.623
	c1.024,0,1.856-0.833,1.856-1.856c0.004-0.762-0.445-1.439-1.145-1.73c-0.698-0.289-1.491-0.132-2.024,0.402
	c-0.344,0.363-0.537,0.839-0.544,1.339C41.652,230.79,42.485,231.623,43.508,231.623z"/>
<path style="fill:#FFFFFF;stroke:#FFFFFF;stroke-width:4;stroke-miterlimit:10;" d="M40.871,229.852
	c-0.702,0.739-0.673,1.916,0.066,2.621c0.739,0.705,1.916,0.679,2.622-0.059l2.624-2.75c0.241-0.253,0.399-0.567,0.47-0.899
	c-0.008-0.188-0.036-0.377-0.09-0.563c-0.237-0.818-0.887-1.446-1.705-1.647c-0.045-0.011-0.091-0.016-0.137-0.024
	c-0.459,0.03-0.9,0.228-1.225,0.569L40.871,229.852z"/>
<path style="fill:#FFFFFF;stroke:#FFFFFF;stroke-width:4;stroke-miterlimit:10;" d="M40.852,229.852
	c-0.707,0.741-0.679,1.919,0.062,2.626c0.741,0.707,1.919,0.679,2.626-0.062l2.626-2.751c0.707-0.741,0.679-1.919-0.062-2.625
	c-0.359-0.343-0.821-0.512-1.282-0.512c-0.49,0-0.98,0.192-1.344,0.574L40.852,229.852z"/>
<path style="fill:#FFFFFF;stroke:#FFFFFF;stroke-width:4;stroke-miterlimit:10;" d="M40.853,229.852
	c-0.514,0.538-0.657,1.328-0.364,2.012c0.293,0.684,0.963,1.126,1.706,1.126c0,0,0.001,0,0.001,0h0.001h0.001
	c0.001,0,0.002,0,0.002,0c0.504,0,0.992-0.209,1.34-0.574l2.626-2.752c0.707-0.741,0.679-1.919-0.062-2.626
	c-0.358-0.342-0.817-0.523-1.325-0.513c-0.496,0.012-0.957,0.216-1.3,0.575L40.853,229.852z"/>
<path style="fill:#FFFFFF;stroke:#FFFFFF;stroke-width:4;stroke-miterlimit:10;" d="M40.85,229.854
	c-0.514,0.538-0.657,1.328-0.364,2.013c0.293,0.684,0.963,1.126,1.707,1.126h0.001c0.001,0,0.002,0,0.002,0
	c0.504,0,0.992-0.209,1.34-0.574l2.626-2.752c0.46-0.48,0.629-1.172,0.443-1.808c-0.186-0.636-0.702-1.128-1.346-1.284
	c-0.144-0.035-0.29-0.052-0.434-0.052c-0.503,0-0.995,0.205-1.349,0.578L40.85,229.854z"/>
<path style="fill:#FFFFFF;stroke:#FFFFFF;stroke-width:4;stroke-miterlimit:10;" d="M42.796,228.037
	c-0.7,0.29-1.149,0.968-1.145,1.725c-0.009,0.495,0.183,0.958,0.526,1.29c0.359,0.366,0.838,0.569,1.33,0.571
	c0.492-0.003,0.971-0.205,1.315-0.556c0.358-0.346,0.55-0.81,0.541-1.287c-0.004-0.508-0.198-0.983-0.546-1.343
	c-0.351-0.354-0.823-0.543-1.306-0.543C43.272,227.894,43.029,227.94,42.796,228.037z"/>
</svg>
