<?xml version="1.0" encoding="iso-8859-1"?>
<!-- Generator: Adobe Illustrator 22.0.0, SVG Export Plug-In . SVG Version: 6.00 Build 0)  -->
<svg version="1.1" id="Capa_1" xmlns="http://www.w3.org/2000/svg" xmlns:xlink="http://www.w3.org/1999/xlink" x="0px" y="0px"
	 viewBox="-49 141 185.016 177.517" style="enable-background:new -49 141 185.016 177.517;" xml:space="preserve">
<g>
	<path style="fill:#FFFFFF;" d="M113.367,170.119c1.361,0,2.464-1.103,2.464-2.464v-7.756c0-1.361-1.103-2.464-2.464-2.464H1.875
		c-1.361,0-2.464,1.103-2.464,2.464v111.492c0,1.361,1.103,2.464,2.464,2.464h111.491c1.361,0,2.464-1.103,2.464-2.464v-95.523
		c0-1.361-1.103-2.464-2.464-2.464c-1.361,0-2.464,1.103-2.464,2.464v42.211h-9.785c-1.361,0-2.464,1.103-2.464,2.464
		c0,1.361,1.103,2.464,2.464,2.464h9.785v45.92H40.512v-11.921c0-1.361-1.103-2.464-2.464-2.464s-2.464,1.103-2.464,2.464v11.921
		H4.339V162.363h31.245v76.904c0,1.361,1.103,2.464,2.464,2.464s2.464-1.103,2.464-2.464v-16.26h43.854
		c1.361,0,2.464-1.103,2.464-2.464c0-1.361-1.103-2.464-2.464-2.464H40.512v-55.717h70.392v5.293
		C110.904,169.016,112.006,170.119,113.367,170.119z"/>
	<path style="fill:#FFFFFF;" d="M-16.129,158.597c-0.45-0.722-1.241-1.162-2.092-1.162s-1.642,0.439-2.092,1.162l-8.13,13.057
		c-0.473,0.76-0.497,1.716-0.062,2.498c0.435,0.782,1.259,1.268,2.154,1.268h5.666v16.235c0,1.361,1.103,2.464,2.464,2.464
		c1.361,0,2.464-1.103,2.464-2.464V175.42h5.666c0.895,0,1.719-0.485,2.154-1.268c0.435-0.782,0.411-1.739-0.062-2.498
		L-16.129,158.597z M-21.914,170.493l3.694-5.932l3.694,5.932H-21.914z"/>
	<path style="fill:#FFFFFF;" d="M-10.091,255.87h-5.666v-63.577c0-1.361-1.103-2.464-2.464-2.464s-2.464,1.103-2.464,2.464v63.577
		h-5.666c-0.895,0-1.719,0.485-2.154,1.268s-0.411,1.739,0.062,2.498l8.13,13.057c0.45,0.722,1.24,1.162,2.092,1.162
		s1.642-0.439,2.092-1.162l8.13-13.057c0.473-0.76,0.497-1.716,0.062-2.498C-8.372,256.355-9.196,255.87-10.091,255.87z
		 M-18.221,266.73l-3.694-5.932h7.387L-18.221,266.73z"/>
	<path style="fill:#FFFFFF;" d="M114.669,289.396l-13.057-8.13c-0.76-0.473-1.716-0.497-2.498-0.062
		c-0.782,0.435-1.267,1.259-1.267,2.154v5.666h-80.45v-5.666c0-0.895-0.485-1.719-1.267-2.154c-0.782-0.434-1.738-0.411-2.499,0.062
		l-13.057,8.13c-0.722,0.45-1.162,1.24-1.162,2.092s0.439,1.642,1.162,2.092l13.057,8.13c0.398,0.248,0.85,0.372,1.302,0.372
		c0.412,0,0.824-0.103,1.196-0.31c0.782-0.435,1.268-1.259,1.268-2.154v-5.666h80.45v5.666c0,0.895,0.486,1.719,1.267,2.154
		c0.373,0.207,0.785,0.31,1.196,0.31c0.452,0,0.904-0.125,1.302-0.372l13.057-8.13c0.722-0.45,1.162-1.24,1.162-2.092
		S115.392,289.846,114.669,289.396z M12.469,295.181l-5.932-3.694l5.932-3.694V295.181z M102.774,295.181v-7.387l5.933,3.694
		L102.774,295.181z"/>
</g>
</svg>
