<?xml version="1.0" encoding="iso-8859-1"?>
<!-- Generator: Adobe Illustrator 22.0.0, SVG Export Plug-In . SVG Version: 6.00 Build 0)  -->
<svg version="1.1" id="Capa_1" xmlns="http://www.w3.org/2000/svg" xmlns:xlink="http://www.w3.org/1999/xlink" x="0px" y="0px"
	 viewBox="-49 141 185.016 177.517" style="enable-background:new -49 141 185.016 177.517;" xml:space="preserve">
<path style="fill:#FFFFFF;" d="M-33.089,294.293l146.061,0.079c4.566,0,8.282-3.714,8.282-8.279v-49.719l0.15-0.251
	c1.643-2.756,4.112-6.899,4.306-7.231c1.749-3.423,2.672-7.274,2.672-11.14c-0.001-6.358-2.427-12.385-6.833-16.97l-0.296-0.307
	v-26.992c0-4.559-3.712-8.273-8.275-8.279l-147.137-0.059c-2.294,0-4.074,0.646-5.29,1.92c-2.046,2.144-1.917,5.433-1.916,5.466
	l0.001,0.052v113.434C-41.363,290.581-37.651,294.293-33.089,294.293z M-33.088,288.887c-1.582,0-2.868-1.287-2.868-2.869v-14.916
	l10.81-10.81l28.615,28.615L-33.088,288.887z M32.96,263.169L9.088,239.297l18.913-18.913l23.872,23.872L32.96,263.169z
	 M55.164,247.547l14.144,14.144l-18.913,18.913L36.251,266.46L55.164,247.547z M16.329,253.119l-21.033,21.033l-17.151-17.152
	l21.033-21.033L16.329,253.119z M10.053,288.91l-11.467-11.466l21.033-21.033l32.522,32.523L10.053,288.91z M58.727,288.936
	l-5.041-5.041l18.913-18.913l23.975,23.974L58.727,288.936z M122.976,217.752c0,3.024-0.685,5.914-2.034,8.589l-0.036,0.066
	L103.87,254.97l-17.079-28.63c-1.368-2.712-2.052-5.64-2.034-8.705c0.061-10.328,8.511-18.847,18.837-18.991
	c5.168-0.072,10.022,1.883,13.69,5.501C120.955,207.765,122.976,212.597,122.976,217.752z M112.974,170.61
	c1.584,0.002,2.873,1.29,2.873,2.872v22.803l-1.513-0.716c-3.386-1.604-7.021-2.381-10.814-2.33
	c-13.249,0.184-24.091,11.114-24.17,24.365c-0.023,3.917,0.9,7.819,2.671,11.285c0.533,0.903,16.137,27.06,16.296,27.326
	c1.177,1.973,3.252,3.151,5.549,3.151c2.298,0,4.372-1.178,5.549-3.151l6.432-10.78l0.001,40.657c0,1.584-1.29,2.873-2.874,2.873
	l-9.813-0.005l-27.269-27.269l8.637-8.637c0.907-0.908,0.907-2.384,0-3.291c-0.908-0.907-2.383-0.907-3.291,0l-8.638,8.638
	l-15.715-15.716l-0.089-0.059l-0.06-0.09l-11.471-11.471l14.334-14.334l7.4,7.401c0.511,0.51,1.19,0.792,1.912,0.792
	c0.722,0,1.401-0.281,1.911-0.792c1.054-1.054,1.054-2.769,0-3.823l-7.4-7.401l42.3-42.3L112.974,170.61z M99.144,170.603
	l-20.722,20.722l-20.743-20.743L99.144,170.603z M75.131,194.616l-33.158,33.158l-21.761-21.761l33.158-33.158L75.131,194.616z
	 M-35.33,171.652c0.411-0.502,1.214-1.1,2.707-1.1h0l81.69,0.025L16.925,202.72l-19.227-19.086c-0.91-0.91-2.386-0.91-3.294-0.003
	c-0.439,0.439-0.682,1.024-0.682,1.645c0,0.622,0.242,1.206,0.682,1.645l30.308,30.17L5.803,236.001l-19.25-18.94l10.782-11.089
	c0.362-0.372,0.557-0.862,0.549-1.381c-0.007-0.519-0.216-1.004-0.588-1.365s-0.86-0.55-1.381-0.55
	c-0.519,0.007-1.004,0.216-1.365,0.588l-10.766,11.072l-5.386-5.299c-0.914-0.914-2.39-0.913-3.297-0.006
	c-0.907,0.907-0.907,2.384,0,3.291l6.784,6.645c0.017,0.019,0.033,0.038,0.051,0.056l0.131,0.115l13.826,13.529l-31.851,31.851
	v-90.381C-36.012,173.745-36.094,172.586-35.33,171.652z"/>
</svg>
