<?xml version="1.0" encoding="iso-8859-1"?>
<!-- Generator: Adobe Illustrator 22.0.0, SVG Export Plug-In . SVG Version: 6.00 Build 0)  -->
<svg version="1.1" id="Capa_1" xmlns="http://www.w3.org/2000/svg" xmlns:xlink="http://www.w3.org/1999/xlink" x="0px" y="0px"
	 viewBox="-49 141 185.016 177.517" style="enable-background:new -49 141 185.016 177.517;" xml:space="preserve">
<g>
	<path style="fill:#FFFFFF;" d="M124.963,170.055c0-7.759-6.314-14.072-14.075-14.072H-23.875c-7.759,0-14.072,6.313-14.072,14.072
		v91.228c0,7.759,6.313,14.072,14.072,14.072h53.082l-3.196,22.623H11.727c-1.53,0-2.776,1.246-2.776,2.778
		c0,1.532,1.245,2.778,2.776,2.778H75.29c1.53,0,2.775-1.246,2.775-2.778c0-1.532-1.245-2.778-2.775-2.778H61.004l-3.195-22.623
		h53.078c7.761,0,14.075-6.313,14.075-14.072V170.055z M31.618,297.977l3.196-22.623h17.389l3.192,22.623H31.618z M119.406,261.283
		c0,4.697-3.822,8.518-8.518,8.518H-23.875c-4.697,0-8.518-3.822-8.518-8.518v-4.285h151.799V261.283z M119.409,251.444H-32.393
		v-81.39c0-4.697,3.822-8.518,8.518-8.518h134.763c4.698,0,8.521,3.821,8.521,8.518V251.444z"/>
	<path style="fill:#FFFFFF;" d="M66.437,202.04c0-0.867-0.414-1.696-1.106-2.218l-20.15-15.196c-0.475-0.358-1.07-0.556-1.673-0.556
		c-0.604,0-1.198,0.197-1.673,0.556l-20.152,15.195c-0.692,0.522-1.104,1.351-1.104,2.218v25.585c0,1.532,1.245,2.778,2.775,2.778
		h40.305c1.532,0,2.778-1.246,2.778-2.778V202.04z M60.881,224.846h-14.31v-10.594l-6.093-0.04l-0.036,10.634h-14.31v-21.424
		l17.375-13.102l17.374,13.102V224.846z"/>
</g>
</svg>
