<?xml version="1.0" encoding="iso-8859-1"?>
<!-- Generator: Adobe Illustrator 22.0.0, SVG Export Plug-In . SVG Version: 6.00 Build 0)  -->
<svg version="1.1" id="Capa_1" xmlns="http://www.w3.org/2000/svg" xmlns:xlink="http://www.w3.org/1999/xlink" x="0px" y="0px"
	 viewBox="-49 141 185.016 177.517" style="enable-background:new -49 141 185.016 177.517;" xml:space="preserve">
<path style="fill:#FFFFFF;" d="M126.237,267.808c0-4.038-3.411-7.449-7.449-7.449H95.143v-28.063h23.645
	c4.038,0,7.449-3.411,7.449-7.449V201.53c0-4.037-3.411-7.449-7.449-7.449H95.143V168.39c0-4.038-3.411-7.449-7.449-7.449H32.872
	c-1.819,0-2.994,0.364-3.811,1.181l-0.79,0.791l-1.001-0.498c-1.519-0.758-2.953-1.473-4.219-1.473h-54.822
	c-4.038,0-7.449,3.411-7.449,7.449v23.318c0,4.038,3.411,7.449,7.449,7.449h23.645v28.063h-23.645c-4.038,0-7.449,3.411-7.449,7.449
	v23.318c0,4.038,3.411,7.449,7.449,7.449h23.645v25.693c0,4.036,3.411,7.446,7.449,7.446h54.822c1.819,0,2.994-0.364,3.811-1.181
	l0.791-0.791l1.001,0.5c1.517,0.757,2.95,1.472,4.216,1.472h54.824c4.038,0,7.449-3.41,7.449-7.446V267.808z M118.788,199.566
	c1.264,0,2.373,1.108,2.373,2.371v23.32c0,1.264-1.109,2.373-2.373,2.373H63.964c-1.263,0-2.37-1.109-2.37-2.373v-23.32
	c0-1.263,1.108-2.371,2.37-2.371H118.788z M30.886,166.894c0.319-0.769,1.117-1.286,1.986-1.286h54.822
	c1.264,0,2.372,1.109,2.372,2.372v23.321c0,1.262-1.109,2.369-2.372,2.369H33.279c-1.263,0-2.37-1.107-2.37-2.369v-22.876
	C30.687,167.934,30.678,167.396,30.886,166.894z M53.735,199.566c1.264,0,2.372,1.108,2.372,2.371v23.32
	c0,1.264-1.109,2.373-2.372,2.373H-0.678c-1.264,0-2.372-1.109-2.372-2.373v-23.32c0-1.263,1.109-2.371,2.372-2.371H53.735z
	 M-31.772,194.081c-1.264,0-2.372-1.109-2.372-2.372V168.39c0-1.264,1.109-2.372,2.372-2.372h54.822
	c1.264,0,2.372,1.109,2.372,2.372v23.318c0,1.264-1.109,2.372-2.372,2.372H-31.772z M-31.772,261.179
	c-1.286,0-2.372-1.087-2.372-2.373v-23.32c0-1.285,1.086-2.369,2.372-2.369h54.822c1.286,0,2.372,1.085,2.372,2.369v23.32
	c0,1.264-1.109,2.373-2.372,2.373H-31.772z M56.131,293.442c-0.319,0.769-1.117,1.286-1.986,1.286H-0.678
	c-1.264,0-2.372-1.109-2.372-2.372v-23.321c0-1.264,1.109-2.372,2.372-2.372h54.413c1.264,0,2.372,1.109,2.372,2.372v22.876
	C56.329,292.402,56.339,292.94,56.131,293.442z M33.279,260.77c-1.263,0-2.37-1.109-2.37-2.372v-23.321
	c0-1.263,1.108-2.37,2.37-2.37h54.415c1.264,0,2.372,1.107,2.372,2.37v23.321c0,1.264-1.109,2.372-2.372,2.372H33.279z
	 M121.161,291.946c0,1.264-1.109,2.373-2.373,2.373H63.964c-1.263,0-2.37-1.109-2.37-2.373v-23.32c0-1.263,1.108-2.371,2.37-2.371
	h54.824c1.286,0,2.373,1.086,2.373,2.371V291.946z"/>
</svg>
