<?xml version="1.0" encoding="iso-8859-1"?>
<!-- Generator: Adobe Illustrator 22.0.0, SVG Export Plug-In . SVG Version: 6.00 Build 0)  -->
<svg version="1.1" id="Layer_1" xmlns="http://www.w3.org/2000/svg" xmlns:xlink="http://www.w3.org/1999/xlink" x="0px" y="0px"
	 viewBox="0 0 394.541 241.528" style="enable-background:new 0 0 394.541 241.528;" xml:space="preserve">
<g>
	<path style="fill:#FFFFFF;" d="M93.476,134.774c-16.596,0-30.098,13.502-30.098,30.098c0,16.598,13.502,30.102,30.098,30.102
		c16.598,0,30.102-13.504,30.102-30.102C123.578,148.276,110.075,134.774,93.476,134.774z"/>
	<path style="fill:#FFFFFF;" d="M99.878,51.571c-2.481,0-4.5,2.019-4.5,4.5v6.403c0,2.481,2.019,4.5,4.5,4.5s4.5-2.019,4.5-4.5
		v-6.403C104.378,53.589,102.36,51.571,99.878,51.571z"/>
	<path style="fill:#FFFFFF;" d="M125.476,51.571c-2.481,0-4.5,2.019-4.5,4.5v25.602c0,2.481,2.019,4.5,4.5,4.5s4.5-2.019,4.5-4.5
		V56.071C129.976,53.589,127.958,51.571,125.476,51.571z"/>
	<path style="fill:#FFFFFF;" d="M151.078,51.571c-2.481,0-4.5,2.019-4.5,4.5v44.801c0,2.481,2.019,4.5,4.5,4.5s4.5-2.019,4.5-4.5
		V56.071C155.578,53.589,153.56,51.571,151.078,51.571z"/>
	<path style="fill:#FFFFFF;" d="M176.675,124.57c2.481,0,4.5-2.019,4.5-4.5v-64c0-2.481-2.019-4.5-4.5-4.5s-4.5,2.019-4.5,4.5v64
		C172.175,122.552,174.194,124.57,176.675,124.57z"/>
	<path style="fill:#FFFFFF;" d="M202.277,124.57c2.481,0,4.5-2.019,4.5-4.5v-64c0-2.481-2.019-4.5-4.5-4.5s-4.5,2.019-4.5,4.5v64
		C197.777,122.552,199.796,124.57,202.277,124.57z"/>
	<path style="fill:#FFFFFF;" d="M298.476,134.774c-16.596,0-30.098,13.502-30.098,30.098c0,16.598,13.502,30.102,30.098,30.102
		c16.598,0,30.102-13.504,30.102-30.102C328.578,148.276,315.075,134.774,298.476,134.774z"/>
	<path style="fill:#FFFFFF;" d="M375.078,128.372c-0.069,0-0.138,0.006-0.205,0.01l-0.109,0.007l-1.588,0.094v-23.736
		c0-7.94-3.944-15.311-10.551-19.717l-9.655-6.439l-13.362-26.716c-4.04-8.08-12.162-13.1-21.197-13.1h-64.934
		c-2.481,0-4.5,2.019-4.5,4.5v27.5h-16.598V24.071c0-1.046,0.852-1.898,1.898-1.898h108.801c2.481,0,4.5-2.019,4.5-4.5
		s-2.019-4.5-4.5-4.5H234.277c-6.01,0-10.898,4.889-10.898,10.898v1.903H16.98c-1.918,0-3.628,1.217-4.254,3.029
		c-0.625,1.812-0.031,3.827,1.479,5.014l88.289,69.233l-4.85-0.323c-1.543-0.103-2.906-0.152-4.167-0.152
		c-34.241,0-62.098,27.857-62.098,62.097c0,34.243,27.857,62.102,62.098,62.102c27.376,0,51.219-17.58,59.329-43.745l0.327-1.056
		h12.645v1.897c0,6.012,4.889,10.903,10.898,10.903h38.403c6.01,0,10.898-4.892,10.898-10.903v-1.897h12.645l0.327,1.056
		c8.11,26.165,31.953,43.745,59.329,43.745c34.243,0,62.102-27.858,62.102-62.102l-0.005-0.134
		c-0.004-0.088-0.007-0.176-0.007-0.265v-1.5h1.91c9.54,0,17.301-7.761,17.301-17.301v-12.801
		C379.578,130.391,377.559,128.372,375.078,128.372z M337.095,66.974l5.103,10.199h-53.521c-2.811,0-5.098-2.289-5.098-5.102
		c0-2.811,2.287-5.097,5.098-5.097H337.095z M257.976,47.775h60.434c5.552,0,10.567,3.072,13.09,8.017l1.113,2.182h-43.938
		c-7.773,0-14.098,6.324-14.098,14.097c0,7.776,6.324,14.102,14.098,14.102h59.438l9.519,6.346
		c4.097,2.731,6.543,7.303,6.543,12.228v23.625l-15.644,0.052l-0.48-0.643c-11.697-15.658-30.305-25.006-49.774-25.006
		c-13.826,0-26.926,4.476-37.884,12.944l-2.417,1.868V47.775z M30.012,34.974h193.367v106.199h-50.257
		c-4.962,0-9.841-1.686-13.739-4.746L30.012,34.974z M93.476,217.974c-29.278,0-53.098-23.821-53.098-53.102
		c0-29.278,23.82-53.097,53.098-53.097c29.281,0,53.102,23.819,53.102,53.097C146.578,194.152,122.757,217.974,93.476,217.974z
		 M216.976,184.07c0,1.05-0.852,1.903-1.898,1.903h-38.403c-1.046,0-1.898-0.854-1.898-1.903v-12.796
		c0-1.049,0.852-1.902,1.898-1.902h38.403c1.047,0,1.898,0.854,1.898,1.902V184.07z M237.533,151.984
		c-0.898,4.226-1.354,8.562-1.354,12.888c0,2.175,0.121,4.409,0.358,6.642l0.178,1.659h-10.739v-1.898
		c0-6.012-4.889-10.902-10.898-10.902h-38.403c-6.009,0-10.898,4.891-10.898,10.902v1.898h-10.736l0.177-1.659
		c0.239-2.233,0.36-4.468,0.36-6.642c0-6.417-0.988-12.76-2.937-18.852l-1.376-4.303l3.677,2.625c5.266,3.76,11.722,5.83,18.18,5.83
		h64.797L237.533,151.984z M240.879,141.173h-8.5V79.775h16.598v46.699c0.005,0.045,0.008,0.107,0.008,0.172v0.503l-0.303,0.4
		c-2.954,3.913-5.447,8.192-7.411,12.721L240.879,141.173z M298.476,217.974c-29.278,0-53.098-23.821-53.098-53.102
		c0-29.278,23.82-53.097,53.098-53.097c29.281,0,53.102,23.819,53.102,53.097C351.578,194.152,327.757,217.974,298.476,217.974z
		 M370.578,145.673c0,4.577-3.724,8.301-8.301,8.301h-2.853l-0.24-1.208c-0.899-4.535-2.331-9.002-4.256-13.278l-0.952-2.115h14.699
		c0.062,0,0.121-0.005,0.181-0.009l1.722-0.09V145.673z"/>
</g>
</svg>
