<?xml version="1.0" encoding="iso-8859-1"?>
<!-- Generator: Adobe Illustrator 22.0.0, SVG Export Plug-In . SVG Version: 6.00 Build 0)  -->
<svg version="1.1" id="Capa_1" xmlns="http://www.w3.org/2000/svg" xmlns:xlink="http://www.w3.org/1999/xlink" x="0px" y="0px"
	 viewBox="-49 141 530 512" style="enable-background:new -49 141 530 512;" xml:space="preserve">
<path style="fill:#FFFFFF;" d="M16.067,540.417c-14.138,0-25.6,11.461-25.6,25.6s11.462,25.6,25.6,25.6s25.6-11.462,25.6-25.6
	C41.651,551.885,30.199,540.432,16.067,540.417z M16.067,574.55c-4.713,0-8.533-3.82-8.533-8.533s3.821-8.533,8.533-8.533
	s8.533,3.82,8.533,8.533C24.595,570.728,20.778,574.546,16.067,574.55L16.067,574.55z"/>
<path style="fill:#FFFFFF;" d="M246.467,566.017c0,14.138,11.462,25.6,25.6,25.6c14.138,0,25.6-11.462,25.6-25.6
	s-11.462-25.6-25.6-25.6C257.935,540.432,246.482,551.885,246.467,566.017z M280.6,566.017c0,4.713-3.82,8.533-8.533,8.533
	s-8.533-3.82-8.533-8.533s3.821-8.533,8.533-8.533C276.778,557.488,280.595,561.306,280.6,566.017z"/>
<g>
	<path style="fill:#FFFFFF;" d="M346.427,292.95H333.25c-2.265,0-4.436,0.899-6.038,2.5l-73.275,73.358
		c-10.313-4.984-21.617-7.579-33.071-7.592v-32.325c0-0.404-0.096-0.792-0.124-1.192c0.016-0.215,0.124-0.398,0.124-0.617
		c-0.029-1.385-0.403-2.74-1.089-3.944c-0.141-0.391-0.215-0.8-0.386-1.181l-52.26-117.589l-0.069-0.155l-12.946-29.13
		c-2.741-6.161-8.852-10.132-15.596-10.133H-26.6c-9.421,0.011-17.056,7.645-17.067,17.067v230.4
		c0.02,18.843,15.29,34.113,34.133,34.133H-1v68.267c-23.553,0.028-42.639,19.114-42.667,42.667v17.067
		c0.028,23.553,19.114,42.639,42.667,42.667h290.133c23.553-0.028,42.639-19.114,42.667-42.667v-17.067
		c-0.028-20.265-14.283-37.724-34.133-41.804v-77.662c-0.013-11.454-2.607-22.758-7.591-33.071l60.874-60.796h66.183v142.556
		l-75.446,117.361c-1.69,2.626-1.81,5.965-0.314,8.706c1.496,2.741,4.37,4.445,7.493,4.444h76.8
		c23.553-0.028,42.639-19.114,42.667-42.667V301.484c-0.012-3.448-2.091-6.552-5.274-7.876
		c-1.033-0.431-108.319-0.657-108.319-0.657H346.427z M220.867,378.284c29.68,0.038,54.845,21.83,59.125,51.2h-59.125V378.284z
		 M280.6,446.55v68.267h-93.867V446.55H280.6z M153.692,216.15l45.512,102.4H101.4v-102.4H153.692z M-26.6,216.15h76.8l0.012,102.4
		H-26.6V216.15z M-9.533,429.484c-9.421-0.011-17.056-7.645-17.067-17.067v-76.8h76.8c9.421-0.011,17.056-7.646,17.067-17.067
		v-102.4c-0.011-9.421-7.646-17.056-17.067-17.067h-76.8v-17.067h165.121l7.585,17.067H101.4
		c-9.421,0.011-17.056,7.645-17.067,17.067v102.4c0.011,9.421,7.645,17.056,17.067,17.067h102.401l0.004,34.108l-0.005,0.025v59.733
		H84.333c0-4.713-3.82-8.533-8.533-8.533s-8.533,3.82-8.533,8.533H-9.533z M101.4,489.217V472.15h68.267v17.067H101.4z
		 M169.667,506.284v8.533H101.4v-8.533H169.667z M101.4,455.084v-8.533h68.267v8.533H101.4z M84.333,446.55v68.267H16.067V446.55
		H84.333z M314.733,557.484v17.067c-0.016,14.132-11.468,25.585-25.6,25.6H-1c-14.132-0.015-25.585-11.468-25.6-25.6v-17.067
		c0.015-14.132,11.468-25.585,25.6-25.6h290.133C303.265,531.899,314.718,543.352,314.733,557.484z M280.785,390.099
		c-3.548-4.428-7.573-8.452-12-12.001l61.182-61.253l8.035,16.111L280.785,390.099z M451.267,574.55
		c-0.015,14.132-11.468,25.585-25.6,25.6h-61.171l65.829-102.4h20.942V574.55z M451.267,480.684H434.2V339.15l17.067-17.067V480.684
		z M422.133,327.084h-67.986l-8.511-17.067H439.2L422.133,327.084z"/>
</g>
</svg>
