<?xml version="1.0" encoding="iso-8859-1"?>
<!-- Generator: Adobe Illustrator 22.0.0, SVG Export Plug-In . SVG Version: 6.00 Build 0)  -->
<svg version="1.1" id="Capa_1" xmlns="http://www.w3.org/2000/svg" xmlns:xlink="http://www.w3.org/1999/xlink" x="0px" y="0px"
	 viewBox="-49 141 185.016 177.517" style="enable-background:new -49 141 185.016 177.517;" xml:space="preserve">
<g>
	<path style="fill:#FFFFFF;" d="M117.339,258.548h-13.416v-13.74c7.804,2.901,12.827,3.473,13.045,3.497
		c1.408,0.149,2.684-0.848,2.848-2.235c0.161-1.389-0.854-2.652-2.261-2.816c-0.183-0.022-18.512-2.364-39.456-19.292
		c-5.154-4.165-9.927-8.841-14.186-13.898c-0.077-0.113-0.169-0.223-0.274-0.329c-8.903-10.671-12.788-19.715-13.595-21.741v-30.548
		c0-1.402-1.155-2.543-2.575-2.543h-7.131c-1.419,0-2.574,1.141-2.574,2.543v29.108c-0.325,0.283-0.575,0.646-0.722,1.052
		c-0.29,0.788-7.343,19.487-28.207,36.356c-20.912,16.903-39.274,19.271-39.453,19.292c-1.409,0.16-2.425,1.423-2.264,2.817
		c0.161,1.387,1.441,2.39,2.85,2.235c0.276-0.031,6.638-0.776,16.121-4.707v14.95h-16.412c-1.42,0-2.575,1.141-2.575,2.543v8.456
		c0,1.402,1.155,2.543,2.575,2.543h4.331c8.947,0,16.227,7.188,16.227,16.022v13.96c0,1.402,1.155,2.543,2.575,2.543h8.044
		c1.419,0,2.574-1.141,2.574-2.543v-14.219c0-8.692,7.161-15.763,15.964-15.763h0.777c9.231,0,16.742,7.418,16.742,16.535v13.447
		c0,1.402,1.155,2.543,2.575,2.543h8.043c1.42,0,2.575-1.141,2.575-2.543v-14.594c0-8.487,6.991-15.392,15.584-15.392
		c8.594,0,15.585,6.905,15.585,15.392v14.594c0,1.402,1.155,2.543,2.574,2.543h8.043c1.42,0,2.575-1.141,2.575-2.543v-14.73
		c0-8.41,6.928-15.252,15.443-15.252h7.429c1.419,0,2.575-1.141,2.575-2.543v-8.456
		C119.913,259.688,118.758,258.548,117.339,258.548z M-8.76,258.548v-17.271c4.318-2.103,8.602-4.583,12.758-7.386v24.657H-8.76z
		 M9.148,258.548v-28.341c0.941-0.712,1.91-1.471,2.952-2.311c3.516-2.843,6.868-5.905,9.983-9.12v39.772H9.148z M27.219,213.081
		c4.845-5.771,8.27-11.104,10.546-15.151v60.618H27.232v-45.201C27.232,213.257,27.228,213.168,27.219,213.081z M42.914,258.548
		v-98.559h1.981v98.559H42.914z M50.045,258.548v-59.102c2.616,4.452,5.695,8.827,9.18,13.042v46.06H50.045z M64.374,258.548
		v-40.273c3.253,3.401,6.767,6.631,10.465,9.621c0.973,0.787,1.964,1.563,2.95,2.311v28.341H64.374z M82.939,258.548v-24.658
		c5.167,3.483,10.486,6.444,15.834,8.814v15.844H82.939z M65.69,267c-11.433,0-20.734,9.186-20.734,20.478v12.051h-2.894v-10.904
		c0-11.922-9.821-21.621-21.892-21.621h-0.777c-11.642,0-21.113,9.353-21.113,20.849v11.676h-2.894v-11.417
		c0-11.639-9.589-21.108-21.376-21.108h-1.756v-3.37h142.511v3.37h-4.855c-11.354,0-20.592,9.123-20.592,20.338v12.187h-2.893
		v-12.051C86.424,276.186,77.123,267,65.69,267z"/>
	
		<line style="fill:none;stroke:#FFFFFF;stroke-width:6;stroke-linecap:round;stroke-miterlimit:10;" x1="-28.417" y1="303.292" x2="115.433" y2="303.292"/>
</g>
</svg>
