<?xml version="1.0" encoding="iso-8859-1"?>
<!-- Generator: Adobe Illustrator 22.0.0, SVG Export Plug-In . SVG Version: 6.00 Build 0)  -->
<svg version="1.1" id="Capa_1" xmlns="http://www.w3.org/2000/svg" xmlns:xlink="http://www.w3.org/1999/xlink" x="0px" y="0px"
	 viewBox="-49 141 185.016 177.517" style="enable-background:new -49 141 185.016 177.517;" xml:space="preserve">
<g>
	<path style="fill:#FFFFFF;" d="M104.017,254.825c-5.243,0-9.51,4.265-9.51,9.51c0,5.243,4.267,9.508,9.51,9.508
		c5.242,0,9.509-4.265,9.509-9.508C113.526,259.091,109.259,254.825,104.017,254.825L104.017,254.825z M104.017,268.656
		c-2.383,0-4.323-1.939-4.323-4.321s1.94-4.323,4.323-4.323c2.383,0,4.323,1.94,4.323,4.323S106.4,268.656,104.017,268.656
		L104.017,268.656z M104.017,268.656"/>
	<path style="fill:#FFFFFF;" d="M22.762,265.198c-2.384,0-4.323,1.94-4.323,4.323s1.939,4.321,4.323,4.321
		c2.383,0,4.321-1.939,4.321-4.321S25.145,265.198,22.762,265.198L22.762,265.198z M22.762,265.198"/>
	<path style="fill:#FFFFFF;" d="M124.763,282.489h-6.098c5.295-4.283,8.692-10.827,8.692-18.154c0-6.512-2.684-12.406-7-16.644
		c0.053-0.206,0.085-0.423,0.085-0.645v-17.288c0-1.433-1.161-2.594-2.594-2.594h-4.891l-9.076-36.306h0.136
		c0.003,0,0.005,0,0.008,0c1.431,0,2.592-1.161,2.592-2.592c0-0.07-0.002-0.141-0.008-0.208
		c-0.112-8.961-7.435-16.217-16.423-16.217H55.61c-1.433,0-2.594,1.161-2.594,2.594v13.831c0,1.431,1.161,2.592,2.594,2.592h0.864
		v25.955c-6.872,0.117-13.271,0.691-19.017,1.655v-12.914c0-1.116-0.715-2.108-1.772-2.46l-10.373-3.458
		c-0.79-0.264-1.66-0.131-2.337,0.355c-0.676,0.488-1.078,1.271-1.078,2.104v20.551c-8.698,3.515-13.831,8.393-13.831,14.025v14.696
		H2.773v-4.323c0-1.433-1.161-2.594-2.594-2.594h-15.56c-10.01,0-18.154,8.144-18.154,18.154v12.967h-4.212
		c-1.433,0-2.594,1.161-2.594,2.592c0,1.433,1.161,2.594,2.594,2.594h6.699c0.018,0,0.035-0.003,0.053-0.003
		c0.019,0,0.037,0.003,0.054,0.003h15.56c10.01,0,18.154-8.144,18.154-18.154v-6.05h5.293v0.863c0,0.402,0.095,0.779,0.256,1.118
		c-2.327,3.051-3.713,6.858-3.713,10.984c0,5.076,2.097,9.669,5.467,12.967H7.203c-1.433,0-2.594,1.161-2.594,2.594
		c0,1.431,1.161,2.592,2.594,2.592h117.561c1.433,0,2.594-1.161,2.594-2.592C127.357,283.65,126.196,282.489,124.763,282.489
		L124.763,282.489z M-2.414,262.606c0,7.15-5.818,12.967-12.967,12.967h-12.965v-12.967c0-7.15,5.815-12.967,12.965-12.967h12.967
		V262.606z M115.255,232.351v11.536c-3.336-1.841-7.166-2.892-11.238-2.892c-7.383,0-13.97,3.45-18.249,8.815
		c-0.304-1.094-1.305-1.9-2.497-1.9H73.039l5.187-15.56H115.255z M107.611,227.164H76.356c-1.116,0-2.106,0.715-2.46,1.774
		l-6.325,18.972H61.66v-57.052h36.875L107.611,227.164z M58.202,177.028h31.984c5.305,0,9.762,3.694,10.936,8.644h-42.92V177.028z
		 M80.679,253.097v15.56H40.914v-15.56H80.679z M27.084,205.695l5.187,1.727v11.963c0,0.034,0.005,0.066,0.006,0.099
		c-1.815,0.409-3.549,0.862-5.193,1.355V205.695z M13.253,236.673c0-3.381,4.531-7.04,12.12-9.786
		c8.161-2.954,19.126-4.668,31.101-4.884v12.076H27.949c-1.433,0-2.594,1.161-2.594,2.594c0,1.431,1.161,2.592,2.594,2.592h28.525
		v8.644H38.322c-1.433,0-2.594,1.161-2.594,2.594v0.865H13.253V236.673z M22.762,282.489c-7.15,0-12.967-5.817-12.967-12.967
		s5.817-12.967,12.967-12.967c7.149,0,12.965,5.817,12.965,12.967S29.911,282.489,22.762,282.489L22.762,282.489z M35.448,282.489
		c2.382-2.33,4.125-5.308,4.944-8.646h42.32c1.514,3.384,3.809,6.341,6.659,8.646H35.448z M104.017,282.489
		c-10.01,0-18.154-8.144-18.154-18.154s8.144-18.154,18.154-18.154s18.154,8.144,18.154,18.154S114.027,282.489,104.017,282.489
		L104.017,282.489z M104.017,282.489"/>
</g>
</svg>
