<?xml version="1.0" encoding="iso-8859-1"?>
<!-- Generator: Adobe Illustrator 22.0.0, SVG Export Plug-In . SVG Version: 6.00 Build 0)  -->
<svg version="1.1" id="Capa_1" xmlns="http://www.w3.org/2000/svg" xmlns:xlink="http://www.w3.org/1999/xlink" x="0px" y="0px"
	 viewBox="-49 141 185.016 177.517" style="enable-background:new -49 141 185.016 177.517;" xml:space="preserve">
<g>
	<path style="fill:#FFFFFF;stroke:#FFFFFF;stroke-width:2;stroke-miterlimit:10;" d="M120.409,281.276h-0.486v-61.517
		c0-0.013-0.001-0.024-0.001-0.036c-0.001-0.042-0.004-0.083-0.007-0.125c-0.003-0.035-0.005-0.069-0.01-0.103
		c-0.004-0.032-0.01-0.066-0.014-0.099c-0.009-0.042-0.015-0.084-0.025-0.126c-0.003-0.011-0.004-0.023-0.007-0.035l-13.103-52.413
		c-0.24-0.962-1.106-1.637-2.097-1.637H-17.641c-0.992,0-1.855,0.675-2.095,1.637l-13.105,52.415
		c-0.003,0.011-0.004,0.022-0.007,0.035c-0.009,0.041-0.017,0.083-0.024,0.125c-0.005,0.034-0.011,0.066-0.016,0.099
		c-0.004,0.034-0.007,0.069-0.01,0.103c-0.003,0.042-0.006,0.084-0.006,0.125c0,0.013-0.001,0.024-0.001,0.036v61.518h-0.488
		c-1.192,0-2.16,0.966-2.16,2.16v8.735c0,1.192,0.968,2.16,2.16,2.16h14.03c1.194,0,2.16-0.968,2.16-2.16v-8.735
		c0-1.194-0.966-2.16-2.16-2.16h-0.487v-4.347h126.715v4.347h-0.486c-1.194,0-2.16,0.966-2.16,2.16v8.735
		c0,1.192,0.966,2.16,2.16,2.16h14.029c1.194,0,2.16-0.968,2.16-2.16v-8.735C122.569,282.243,121.603,281.276,120.409,281.276z
		 M-15.955,169.506h118.926l12.024,48.093h-4.647h-1.323H-27.978L-15.955,169.506z M-28.585,233.55h4.416v41.22v6.506h-4.416V233.55
		z M-21.523,290.012h-9.71v-4.416h9.71V290.012z M-28.585,229.229v-7.31h137.611h1.323h5.253v7.31H-28.585z M115.602,233.55v47.726
		h-4.416v-6.506v-41.22H115.602z M106.866,272.61H-19.849v-38.99h126.715V272.61z M118.248,290.012h-9.709v-4.416h9.223h0.486
		V290.012z"/>
	<path style="fill:#FFFFFF;stroke:#FFFFFF;stroke-width:2;stroke-miterlimit:10;" d="M-12.36,257.245
		c0.277,0.194,0.603,0.294,0.931,0.294c0.188,0,0.377-0.033,0.558-0.099l40.51-14.801c0.741-0.27,1.18-1.033,1.042-1.809
		c-0.137-0.777-0.812-1.342-1.6-1.342h-40.51c-0.897,0-1.625,0.727-1.625,1.625v14.801
		C-13.054,256.444-12.795,256.941-12.36,257.245z M-9.803,242.739h29.7l-29.7,10.85V242.739z"/>
	<path style="fill:#FFFFFF;stroke:#FFFFFF;stroke-width:2;stroke-miterlimit:10;" d="M-9.895,265.876
		c0.18,0.968,1.023,1.669,2.007,1.669h102.12c0.961,0,1.793-0.672,1.995-1.613c0.201-0.94-0.283-1.894-1.161-2.288l-42.527-19.076
		l4.28-1.639l41.234,18.235c0.264,0.117,0.544,0.174,0.825,0.174c0.389,0,0.777-0.112,1.113-0.329
		c0.578-0.377,0.927-1.02,0.927-1.711v-18.573c0-1.128-0.914-2.04-2.04-2.04H56.875c-0.021,0-0.041,0.001-0.061,0.002
		c-0.033,0-0.065,0.001-0.097,0.004c-0.037,0.003-0.073,0.008-0.109,0.012c-0.025,0.004-0.051,0.005-0.077,0.01
		c-0.062,0.011-0.125,0.024-0.186,0.04c-0.003,0.001-0.006,0.002-0.009,0.002c-0.06,0.017-0.12,0.036-0.177,0.058
		c-0.005,0.001-0.009,0.003-0.015,0.004l-9.649,3.695c0,0.001-0.001,0.001-0.001,0.001L-8.617,263.6
		C-9.536,263.952-10.073,264.909-9.895,265.876z M96.838,242.765v13.402l-30.307-13.402H96.838z M47.161,246.628L84.7,263.465H3.151
		L47.161,246.628z"/>
</g>
</svg>
