<?xml version="1.0" encoding="iso-8859-1"?>
<!-- Generator: Adobe Illustrator 22.0.0, SVG Export Plug-In . SVG Version: 6.00 Build 0)  -->
<svg version="1.1" id="Capa_1" xmlns="http://www.w3.org/2000/svg" xmlns:xlink="http://www.w3.org/1999/xlink" x="0px" y="0px"
	 viewBox="-49 141 185.016 177.517" style="enable-background:new -49 141 185.016 177.517;" xml:space="preserve">
<g>
	<path style="fill:#FFFFFF;" d="M115.059,305.895h-4.588V161.876c0-1.52-1.232-2.752-2.751-2.752h-51.37
		c-1.52,0-2.752,1.232-2.752,2.752v11.925h-5.504v-11.925c0-1.52-1.232-2.752-2.752-2.752H33.418v-8.256
		c0-1.52-1.232-2.751-2.751-2.751c-1.52,0-2.753,1.232-2.753,2.751v8.256H15.988c-1.52,0-2.752,1.232-2.752,2.752v11.925H4.98
		c-1.52,0-2.751,1.232-2.751,2.753v22.933h-22.933c-1.52,0-2.752,1.232-2.752,2.752v103.657h-4.588c-1.52,0-2.751,1.232-2.751,2.751
		c0,1.52,1.232,2.753,2.751,2.753h143.103c1.52,0,2.751-1.232,2.751-2.753C117.811,307.127,116.579,305.895,115.059,305.895
		L115.059,305.895z M18.74,164.629h23.851v9.172H18.74V164.629z M9.568,305.895H7.732v-4.586c0-1.521-1.232-2.751-2.752-2.751
		c-1.52,0-2.751,1.23-2.751,2.751v4.586H0.394v-9.173h9.174V305.895z M27.913,235.261v70.634H15.071v-11.925
		c0-1.52-1.232-2.751-2.752-2.751H-2.359c-1.52,0-2.751,1.231-2.751,2.751v11.925h-12.842V204.99h45.866V235.261z M30.666,199.486
		H7.732v-20.181h45.867v53.204H33.418v-9.174h8.256c1.52,0,2.752-1.231,2.752-2.751c0-1.52-1.232-2.751-2.752-2.751h-8.256v-9.174
		h8.256c1.52,0,2.752-1.232,2.752-2.751c0-1.522-1.232-2.753-2.752-2.753h-8.256v-0.917
		C33.418,200.718,32.186,199.486,30.666,199.486L30.666,199.486z M79.283,305.895H33.418v-67.881h45.866V305.895z M104.969,305.895
		H84.788v-74.303c0-1.52-1.233-2.751-2.753-2.751c-1.518,0-2.751,1.232-2.751,2.751v0.917H73.78v-0.917
		c0-1.52-1.233-2.751-2.751-2.751c-1.52,0-2.753,1.232-2.753,2.751v0.917h-9.172v-67.881h45.866V305.895z M104.969,305.895"/>
	<path style="fill:#FFFFFF;" d="M45.343,300.392c1.52,0,2.752-1.232,2.752-2.751v-51.37c0-1.52-1.232-2.752-2.752-2.752
		c-1.52,0-2.751,1.232-2.751,2.752v51.37C42.591,299.16,43.823,300.392,45.343,300.392L45.343,300.392z M45.343,300.392"/>
	<path style="fill:#FFFFFF;" d="M56.351,300.392c1.52,0,2.751-1.232,2.751-2.751v-51.37c0-1.52-1.232-2.752-2.751-2.752
		c-1.52,0-2.752,1.232-2.752,2.752v51.37C53.599,299.16,54.831,300.392,56.351,300.392L56.351,300.392z M56.351,300.392"/>
	<path style="fill:#FFFFFF;" d="M67.358,300.392c1.52,0,2.751-1.232,2.751-2.751v-51.37c0-1.52-1.232-2.752-2.751-2.752
		c-1.52,0-2.751,1.232-2.751,2.752v51.37C64.607,299.16,65.838,300.392,67.358,300.392L67.358,300.392z M67.358,300.392"/>
	<path style="fill:#FFFFFF;" d="M71.027,182.974c1.52,0,2.753-1.231,2.753-2.751v-3.669c0-1.52-1.233-2.751-2.753-2.751
		c-1.518,0-2.751,1.231-2.751,2.751v3.669C68.275,181.743,69.507,182.974,71.027,182.974L71.027,182.974z M71.027,182.974"/>
	<path style="fill:#FFFFFF;" d="M82.035,182.974c1.522,0,2.753-1.231,2.753-2.751v-3.669c0-1.52-1.233-2.751-2.753-2.751
		c-1.518,0-2.751,1.231-2.751,2.751v3.669C79.283,181.743,80.515,182.974,82.035,182.974L82.035,182.974z M82.035,182.974"/>
	<path style="fill:#FFFFFF;" d="M93.044,182.974c1.52,0,2.752-1.231,2.752-2.751v-3.669c0-1.52-1.233-2.751-2.752-2.751
		c-1.52,0-2.753,1.231-2.753,2.751v3.669C90.291,181.743,91.523,182.974,93.044,182.974L93.044,182.974z M93.044,182.974"/>
	<path style="fill:#FFFFFF;" d="M71.027,201.321c1.52,0,2.753-1.232,2.753-2.752v-3.67c0-1.52-1.233-2.751-2.753-2.751
		c-1.518,0-2.751,1.232-2.751,2.751v3.67C68.275,200.089,69.507,201.321,71.027,201.321L71.027,201.321z M71.027,201.321"/>
	<path style="fill:#FFFFFF;" d="M82.035,201.321c1.522,0,2.753-1.232,2.753-2.752v-3.67c0-1.52-1.233-2.751-2.753-2.751
		c-1.518,0-2.751,1.232-2.751,2.751v3.67C79.283,200.089,80.515,201.321,82.035,201.321L82.035,201.321z M82.035,201.321"/>
	<path style="fill:#FFFFFF;" d="M93.044,201.321c1.52,0,2.752-1.232,2.752-2.752v-3.67c0-1.52-1.233-2.751-2.752-2.751
		c-1.52,0-2.753,1.232-2.753,2.751v3.67C90.291,200.089,91.523,201.321,93.044,201.321L93.044,201.321z M93.044,201.321"/>
	<path style="fill:#FFFFFF;" d="M71.027,219.668c1.52,0,2.753-1.232,2.753-2.751v-3.67c0-1.52-1.233-2.751-2.753-2.751
		c-1.518,0-2.751,1.231-2.751,2.751v3.67C68.275,218.436,69.507,219.668,71.027,219.668L71.027,219.668z M71.027,219.668"/>
	<path style="fill:#FFFFFF;" d="M82.035,219.668c1.522,0,2.753-1.232,2.753-2.751v-3.67c0-1.52-1.233-2.751-2.753-2.751
		c-1.518,0-2.751,1.231-2.751,2.751v3.67C79.283,218.436,80.515,219.668,82.035,219.668L82.035,219.668z M82.035,219.668"/>
	<path style="fill:#FFFFFF;" d="M93.044,219.668c1.52,0,2.752-1.232,2.752-2.751v-3.67c0-1.52-1.233-2.751-2.752-2.751
		c-1.52,0-2.753,1.231-2.753,2.751v3.67C90.291,218.436,91.523,219.668,93.044,219.668L93.044,219.668z M93.044,219.668"/>
	<path style="fill:#FFFFFF;" d="M-6.027,227.007c1.52,0,2.751-1.231,2.751-2.753v-3.669c0-1.52-1.231-2.751-2.751-2.751
		c-1.52,0-2.751,1.232-2.751,2.751v3.669C-8.779,225.774-7.547,227.007-6.027,227.007L-6.027,227.007z M-6.027,227.007"/>
	<path style="fill:#FFFFFF;" d="M4.98,227.007c1.52,0,2.752-1.231,2.752-2.753v-3.669c0-1.52-1.232-2.751-2.752-2.751
		c-1.52,0-2.751,1.232-2.751,2.751v3.669C2.229,225.774,3.461,227.007,4.98,227.007L4.98,227.007z M4.98,227.007"/>
	<path style="fill:#FFFFFF;" d="M15.988,227.007c1.52,0,2.751-1.231,2.751-2.753v-3.669c0-1.52-1.232-2.751-2.751-2.751
		c-1.52,0-2.752,1.232-2.752,2.751v3.669C13.236,225.774,14.468,227.007,15.988,227.007L15.988,227.007z M15.988,227.007"/>
	<path style="fill:#FFFFFF;" d="M-6.027,245.352c1.52,0,2.751-1.232,2.751-2.751v-3.669c0-1.521-1.231-2.753-2.751-2.753
		c-1.52,0-2.751,1.232-2.751,2.753v3.669C-8.779,244.12-7.547,245.352-6.027,245.352L-6.027,245.352z M-6.027,245.352"/>
	<path style="fill:#FFFFFF;" d="M4.98,245.352c1.52,0,2.752-1.232,2.752-2.751v-3.669c0-1.521-1.232-2.753-2.752-2.753
		c-1.52,0-2.751,1.232-2.751,2.753v3.669C2.229,244.12,3.461,245.352,4.98,245.352L4.98,245.352z M4.98,245.352"/>
	<path style="fill:#FFFFFF;" d="M15.988,245.352c1.52,0,2.751-1.232,2.751-2.751v-3.669c0-1.521-1.232-2.753-2.751-2.753
		c-1.52,0-2.752,1.232-2.752,2.753v3.669C13.236,244.12,14.468,245.352,15.988,245.352L15.988,245.352z M15.988,245.352"/>
	<path style="fill:#FFFFFF;" d="M-6.027,263.699c1.52,0,2.751-1.231,2.751-2.751v-3.67c0-1.52-1.231-2.751-2.751-2.751
		c-1.52,0-2.751,1.232-2.751,2.751v3.67C-8.779,262.467-7.547,263.699-6.027,263.699L-6.027,263.699z M-6.027,263.699"/>
	<path style="fill:#FFFFFF;" d="M4.98,263.699c1.52,0,2.752-1.231,2.752-2.751v-3.67c0-1.52-1.232-2.751-2.752-2.751
		c-1.52,0-2.751,1.232-2.751,2.751v3.67C2.229,262.467,3.461,263.699,4.98,263.699L4.98,263.699z M4.98,263.699"/>
	<path style="fill:#FFFFFF;" d="M15.988,263.699c1.52,0,2.751-1.231,2.751-2.751v-3.67c0-1.52-1.232-2.751-2.751-2.751
		c-1.52,0-2.752,1.232-2.752,2.751v3.67C13.236,262.467,14.468,263.699,15.988,263.699L15.988,263.699z M15.988,263.699"/>
	<path style="fill:#FFFFFF;" d="M-6.027,282.046c1.52,0,2.751-1.232,2.751-2.752v-3.67c0-1.52-1.231-2.751-2.751-2.751
		c-1.52,0-2.751,1.232-2.751,2.751v3.67C-8.779,280.814-7.547,282.046-6.027,282.046L-6.027,282.046z M-6.027,282.046"/>
	<path style="fill:#FFFFFF;" d="M4.98,282.046c1.52,0,2.752-1.232,2.752-2.752v-3.67c0-1.52-1.232-2.751-2.752-2.751
		c-1.52,0-2.751,1.232-2.751,2.751v3.67C2.229,280.814,3.461,282.046,4.98,282.046L4.98,282.046z M4.98,282.046"/>
	<path style="fill:#FFFFFF;" d="M15.988,282.046c1.52,0,2.751-1.232,2.751-2.752v-3.67c0-1.52-1.232-2.751-2.751-2.751
		c-1.52,0-2.752,1.232-2.752,2.751v3.67C13.236,280.814,14.468,282.046,15.988,282.046L15.988,282.046z M15.988,282.046"/>
	<path style="fill:#FFFFFF;" d="M93.044,238.015c1.52,0,2.752-1.232,2.752-2.753v-3.669c0-1.52-1.233-2.751-2.752-2.751
		c-1.52,0-2.753,1.232-2.753,2.751v3.669C90.291,236.783,91.523,238.015,93.044,238.015L93.044,238.015z M93.044,238.015"/>
	<path style="fill:#FFFFFF;" d="M93.044,256.36c1.52,0,2.752-1.232,2.752-2.751v-3.669c0-1.522-1.233-2.752-2.752-2.752
		c-1.52,0-2.753,1.23-2.753,2.752v3.669C90.291,255.128,91.523,256.36,93.044,256.36L93.044,256.36z M93.044,256.36"/>
	<path style="fill:#FFFFFF;" d="M93.044,274.707c1.52,0,2.752-1.232,2.752-2.752v-3.67c0-1.52-1.233-2.751-2.752-2.751
		c-1.52,0-2.753,1.232-2.753,2.751v3.67C90.291,273.475,91.523,274.707,93.044,274.707L93.044,274.707z M93.044,274.707"/>
	<path style="fill:#FFFFFF;" d="M93.044,293.053c1.52,0,2.752-1.232,2.752-2.751v-3.67c0-1.52-1.233-2.752-2.752-2.752
		c-1.52,0-2.753,1.232-2.753,2.752v3.67C90.291,291.821,91.523,293.053,93.044,293.053L93.044,293.053z M93.044,293.053"/>
	<path style="fill:#FFFFFF;" d="M44.426,191.23c0-1.52-1.233-2.751-2.752-2.751H19.657c-1.52,0-2.752,1.232-2.752,2.751
		c0,1.52,1.233,2.752,2.752,2.752h22.017C43.194,193.982,44.426,192.75,44.426,191.23L44.426,191.23z M44.426,191.23"/>
</g>
</svg>
