<?xml version="1.0" encoding="iso-8859-1"?>
<!-- Generator: Adobe Illustrator 22.0.0, SVG Export Plug-In . SVG Version: 6.00 Build 0)  -->
<svg version="1.1" id="Capa_1" xmlns="http://www.w3.org/2000/svg" xmlns:xlink="http://www.w3.org/1999/xlink" x="0px" y="0px"
	 viewBox="-49 141 185.016 177.517" style="enable-background:new -49 141 185.016 177.517;" xml:space="preserve">
<g>
	<path style="fill:#FFFFFF;" d="M14.653,284.453h90.584c1.333,0,2.412-1.081,2.412-2.412c0-1.332-1.079-2.412-2.412-2.412H14.653
		c-1.332,0-2.412,1.08-2.412,2.412C12.241,283.373,13.321,284.453,14.653,284.453L14.653,284.453z M14.653,284.453"/>
	<path style="fill:#FFFFFF;" d="M14.653,203.546h7.937c1.333,0,2.412-1.081,2.412-2.412c0-1.332-1.079-2.412-2.412-2.412h-7.937
		c-1.332,0-2.412,1.08-2.412,2.412C12.241,202.467,13.321,203.546,14.653,203.546L14.653,203.546z M14.653,203.546"/>
	<path style="fill:#FFFFFF;" d="M14.653,223.773h7.937c1.333,0,2.412-1.08,2.412-2.412c0-1.332-1.079-2.412-2.412-2.412h-7.937
		c-1.332,0-2.412,1.081-2.412,2.412C12.241,222.693,13.321,223.773,14.653,223.773L14.653,223.773z M14.653,223.773"/>
	<path style="fill:#FFFFFF;" d="M14.653,244.001h7.937c1.333,0,2.412-1.081,2.412-2.412c0-1.334-1.079-2.412-2.412-2.412h-7.937
		c-1.332,0-2.412,1.079-2.412,2.412C12.241,242.92,13.321,244.001,14.653,244.001L14.653,244.001z M14.653,244.001"/>
	<path style="fill:#FFFFFF;" d="M14.653,264.226h7.937c1.333,0,2.412-1.079,2.412-2.412c0-1.332-1.079-2.412-2.412-2.412h-7.937
		c-1.332,0-2.412,1.081-2.412,2.412C12.241,263.147,13.321,264.226,14.653,264.226L14.653,264.226z M14.653,264.226"/>
	<path style="fill:#FFFFFF;" d="M43.197,264.226h50.47c2.503,0,4.54-2.037,4.54-4.542v-37.776h3.015c1.37,0,2.566-0.88,2.975-2.188
		c0.408-1.31-0.074-2.714-1.2-3.496l-32.79-22.72c-1.048-0.725-2.502-0.725-3.549,0l-32.791,22.72
		c-1.127,0.782-1.61,2.186-1.2,3.496c0.408,1.308,1.605,2.188,2.974,2.188h3.014v37.776
		C38.655,262.189,40.692,264.226,43.197,264.226L43.197,264.226z M74.317,259.402H62.546V239.01h11.771V259.402z M93.385,259.402
		H79.141v-20.783c0-2.444-1.988-4.433-4.434-4.433H62.157c-2.446,0-4.434,1.99-4.434,4.433v20.785H43.48v-37.495h49.905V259.402z
		 M68.432,198.144l27.332,18.94H41.099L68.432,198.144z M68.432,198.144"/>
	<path style="fill:#FFFFFF;" d="M117.144,171.828H-0.654v-0.107c0-10.549-8.562-19.129-19.087-19.129
		c-10.525,0-19.087,8.581-19.087,19.129v85.243v3.643v27.189c0,0.03,0.003,0.058,0.005,0.088c0.019,4.955,1.898,9.613,5.347,13.193
		c3.63,3.771,8.507,5.847,13.735,5.847h136.885c4.798,0,8.7-3.91,8.7-8.716v-91.744v-7.066v-18.854
		C125.844,175.739,121.942,171.828,117.144,171.828z M-34.004,260.608v-3.643v-85.243c0-7.888,6.398-14.305,14.263-14.305
		c7.863,0,14.262,6.417,14.262,14.305v103.362c-0.333-0.372-0.68-0.733-1.043-1.083c-3.323-3.199-7.574-5.043-12.117-5.299
		c-0.094-0.005-0.189-0.006-0.283-0.011c-0.237-0.01-0.476-0.017-0.715-0.019c-0.036,0-0.071-0.003-0.105-0.003
		c-0.102,0-0.203,0.006-0.303,0.008c-0.146,0.003-0.292,0.002-0.438,0.006c-0.06,0.003-0.116,0.008-0.176,0.011
		c-0.129,0.006-0.257,0.016-0.386,0.023c-0.203,0.014-0.404,0.03-0.605,0.05c-0.135,0.014-0.269,0.029-0.402,0.046
		c-0.187,0.022-0.372,0.049-0.557,0.077c-0.146,0.022-0.292,0.044-0.438,0.071c-0.159,0.028-0.319,0.06-0.478,0.091
		c-0.166,0.035-0.333,0.068-0.499,0.107c-0.11,0.025-0.22,0.055-0.33,0.082c-3.788,0.946-7.133,3.022-9.65,5.858V260.608z
		 M121.02,298.209c0,2.145-1.739,3.891-3.876,3.891H-19.741c-3.904,0-7.548-1.551-10.26-4.369c-2.679-2.783-4.093-6.439-3.994-10.31
		c0.003-0.082,0.003-0.164,0.006-0.245c0.006-0.141,0.016-0.279,0.027-0.419c0.006-0.099,0.013-0.198,0.022-0.297
		c0.012-0.132,0.028-0.265,0.044-0.397c0.012-0.099,0.023-0.198,0.037-0.297c0.021-0.136,0.043-0.271,0.066-0.406
		c0.016-0.09,0.03-0.179,0.047-0.269c0.028-0.146,0.06-0.291,0.091-0.435c0.017-0.072,0.033-0.146,0.05-0.218
		c0.039-0.16,0.082-0.32,0.126-0.479c0.014-0.05,0.028-0.101,0.042-0.151c0.052-0.179,0.107-0.356,0.166-0.532l0.025-0.075
		c1.355-3.977,4.421-7.182,8.303-8.719c0.019-0.006,0.038-0.014,0.057-0.022c0.173-0.067,0.347-0.13,0.523-0.191
		c0.05-0.017,0.099-0.035,0.149-0.05c0.151-0.05,0.303-0.099,0.457-0.143c0.077-0.023,0.154-0.045,0.232-0.068
		c0.132-0.036,0.264-0.07,0.396-0.103c0.102-0.025,0.205-0.049,0.308-0.071c0.115-0.027,0.23-0.05,0.344-0.074
		c0.122-0.023,0.245-0.045,0.369-0.066c0.101-0.017,0.203-0.035,0.305-0.049c0.135-0.021,0.271-0.036,0.408-0.052
		c0.094-0.011,0.19-0.023,0.286-0.033c0.14-0.012,0.279-0.022,0.421-0.031c0.097-0.006,0.195-0.014,0.292-0.019
		c0.129-0.006,0.259-0.008,0.389-0.009c0.115-0.002,0.231-0.005,0.346-0.005c0.141,0,0.281,0.005,0.422,0.009
		c0.096,0.005,0.193,0.006,0.291,0.011c0.174,0.009,0.347,0.023,0.52,0.041c0.058,0.005,0.118,0.01,0.176,0.014
		c0.224,0.023,0.449,0.051,0.672,0.086c0.002,0,0.005,0,0.008,0.002c6.362,0.979,11.351,6.188,12.015,12.664
		c0.05,0.487,0.074,0.979,0.074,1.475c0,0.019,0.005,0.036,0.005,0.055c0.002,0.085,0.008,0.168,0.019,0.251
		c0.005,0.038,0.011,0.074,0.017,0.111c0.014,0.082,0.033,0.164,0.055,0.242c0.006,0.022,0.011,0.045,0.018,0.068
		c0.029,0.091,0.065,0.179,0.104,0.264c0.013,0.031,0.029,0.061,0.044,0.093c0.036,0.072,0.077,0.144,0.121,0.214
		c0.014,0.021,0.027,0.042,0.041,0.064c0.052,0.075,0.109,0.146,0.168,0.215c0.024,0.027,0.047,0.052,0.072,0.078
		c0.056,0.062,0.118,0.119,0.181,0.174c0.02,0.017,0.041,0.035,0.063,0.052c0.069,0.057,0.144,0.108,0.222,0.157
		c0.025,0.016,0.052,0.031,0.078,0.047c0.088,0.052,0.181,0.099,0.277,0.139c0.002,0,0.004,0.002,0.008,0.003
		c0.008,0.005,0.017,0.006,0.027,0.01c0.088,0.036,0.179,0.064,0.273,0.089c0.027,0.006,0.052,0.014,0.079,0.021
		c0.099,0.024,0.201,0.041,0.306,0.052c0.016,0.002,0.032,0.002,0.047,0.002c0.063,0.006,0.127,0.011,0.191,0.011
		c0.025,0,0.05-0.003,0.077-0.004c0.03-0.002,0.059-0.003,0.089-0.005c0.099-0.006,0.196-0.017,0.291-0.036
		c0.005,0,0.011-0.002,0.016-0.002c0.107-0.022,0.209-0.052,0.309-0.086c0.019-0.006,0.039-0.012,0.058-0.021
		c0.094-0.034,0.187-0.075,0.275-0.121c0.006-0.003,0.014-0.006,0.02-0.01c0.093-0.05,0.182-0.108,0.269-0.17
		c0.019-0.014,0.038-0.028,0.057-0.042c0.086-0.066,0.168-0.133,0.243-0.211h0.002c0.006-0.006,0.011-0.012,0.016-0.018
		c0.05-0.05,0.098-0.102,0.143-0.157c0.014-0.017,0.027-0.036,0.039-0.053c0.034-0.044,0.069-0.09,0.101-0.135
		c0.011-0.017,0.02-0.035,0.03-0.05c0.033-0.05,0.064-0.1,0.092-0.152c0.006-0.012,0.011-0.025,0.016-0.036
		c0.031-0.058,0.06-0.118,0.085-0.179c0.003-0.008,0.006-0.016,0.01-0.023c0.025-0.065,0.05-0.131,0.07-0.198
		c0.003-0.008,0.005-0.017,0.006-0.027c0.021-0.066,0.038-0.133,0.052-0.201c0.003-0.02,0.005-0.041,0.009-0.061
		c0.01-0.058,0.019-0.115,0.025-0.173c0.008-0.08,0.012-0.16,0.012-0.242V176.653h117.798c2.137,0,3.876,1.745,3.876,3.892v18.854
		v7.066V298.209z"/>
</g>
</svg>
