<?xml version="1.0" encoding="iso-8859-1"?>
<!-- Generator: Adobe Illustrator 22.0.0, SVG Export Plug-In . SVG Version: 6.00 Build 0)  -->
<svg version="1.1" id="Capa_1" xmlns="http://www.w3.org/2000/svg" xmlns:xlink="http://www.w3.org/1999/xlink" x="0px" y="0px"
	 viewBox="-49 141 185.016 177.517" style="enable-background:new -49 141 185.016 177.517;" xml:space="preserve">
<path style="fill:#FFFFFF;" d="M55.942,216.174c-0.795-0.329-1.709-0.147-2.318,0.461l-23.24,23.24
	c-0.608,0.608-0.79,1.523-0.461,2.318c0.329,0.795,1.105,1.313,1.965,1.313h23.24c1.175,0,2.127-0.952,2.127-2.126v-23.24
	C57.255,217.278,56.737,216.503,55.942,216.174z M53.002,239.252h-15.98l15.98-15.98L53.002,239.252L53.002,239.252z"/>
<path style="fill:#FFFFFF;" d="M114.639,225.476c-0.795-0.329-1.709-0.147-2.318,0.461l-6.369,6.369v-43.305
	c0-1.175-0.952-2.126-2.127-2.126h-16.34l5.931-5.931c0.001-0.001,0.002-0.002,0.003-0.003l5.715-5.715
	c1.225-1.225,1.899-2.853,1.899-4.585s-0.674-3.36-1.899-4.585l-6.609-6.609c-1.225-1.225-2.853-1.899-4.585-1.899
	c-1.732,0-3.36,0.674-4.585,1.899l-5.718,5.718l-6.909,6.909l-14.801,14.801h-66.011v-21.038c0-1.175-0.952-2.127-2.127-2.127
	c-9.223,0-16.726,7.503-16.726,16.726v90.324c0,0.157,0.018,0.31,0.05,0.457c0.294,3.913,1.987,7.549,4.816,10.31
	c3.024,2.95,7.017,4.575,11.242,4.575h64.983l-12.239,12.239c-0.608,0.608-0.79,1.523-0.461,2.318
	c0.329,0.795,1.105,1.313,1.965,1.313h72.402c1.174,0,2.127-0.952,2.127-2.126v-72.402
	C115.951,226.581,115.433,225.805,114.639,225.476z M86.364,162.454c0.869-0.87,2.286-0.87,3.155,0l6.609,6.609
	c0.87,0.87,0.87,2.285,0,3.155l-4.214,4.214l-9.764-9.764L86.364,162.454z M79.142,169.676l9.764,9.764l-3.902,3.902l-9.764-9.764
	L79.142,169.676z M58.312,190.505c0.001-0.001,0.001-0.001,0.001-0.001l13.918-13.918l9.764,9.764l-1.145,1.145
	c-0.001,0.001-0.002,0.002-0.003,0.003l-42.879,42.88l-9.764-9.764l17.427-17.384c0.083-0.083,0.155-0.172,0.221-0.264
	L58.312,190.505z M34.079,232.502l-6.091,2.15l-4.059-4.059l2.15-6.091L34.079,232.502z M-24.682,180.435
	c0-6.152,4.478-11.279,10.346-12.292v20.857v41.323v1.91v0v21.931c-3.591,0.454-6.924,2.056-9.553,4.622
	c-0.276,0.27-0.538,0.551-0.794,0.836V180.435z M-12.825,281.847c-6.45,0-11.642-5.035-11.846-11.473
	c0.012-0.404,0.044-0.805,0.094-1.201c0-0.002,0.001-0.005,0.001-0.007c0.024-0.188,0.052-0.375,0.085-0.562
	c0.004-0.021,0.008-0.043,0.011-0.064c0.03-0.166,0.063-0.331,0.1-0.496c0.01-0.046,0.021-0.092,0.032-0.137
	c0.032-0.139,0.067-0.278,0.104-0.415c0.02-0.075,0.042-0.149,0.064-0.223c0.031-0.108,0.064-0.216,0.098-0.323
	c0.034-0.107,0.071-0.212,0.108-0.318c0.026-0.074,0.051-0.148,0.079-0.221c0.052-0.139,0.107-0.277,0.163-0.414
	c0.016-0.039,0.032-0.079,0.049-0.118c0.073-0.17,0.148-0.338,0.228-0.504c0.003-0.007,0.007-0.014,0.01-0.021
	c1.663-3.442,4.862-6.009,8.702-6.805c0.011-0.002,0.022-0.005,0.032-0.007c0.176-0.036,0.354-0.067,0.532-0.095
	c0.03-0.005,0.06-0.011,0.09-0.015c0.162-0.025,0.325-0.044,0.488-0.062c0.046-0.005,0.091-0.012,0.138-0.017
	c0.158-0.016,0.317-0.026,0.476-0.036c0.05-0.003,0.101-0.009,0.151-0.011c0.208-0.01,0.418-0.016,0.629-0.016
	c1.174,0,2.127-0.952,2.127-2.126v-23.924v0v-1.91v-39.197h61.758l-11.756,11.756c-0.075,0.075-0.141,0.156-0.203,0.239
	l-16.023,15.987c-0.053,0.053-0.103,0.109-0.15,0.167c-0.016,0.019-0.029,0.04-0.044,0.06c-0.03,0.04-0.06,0.08-0.087,0.122
	c-0.016,0.024-0.03,0.049-0.045,0.074c-0.024,0.04-0.046,0.08-0.067,0.121c-0.014,0.027-0.026,0.054-0.038,0.081
	c-0.019,0.042-0.037,0.084-0.053,0.126c-0.006,0.015-0.013,0.029-0.018,0.044l-4.143,11.737l-2.825,8.002
	c-0.037,0.106-0.064,0.215-0.084,0.324H9.067c-1.174,0-2.127,0.952-2.127,2.127c0,1.175,0.952,2.126,2.127,2.126H67.96
	c1.175,0,2.127-0.952,2.127-2.126c0-1.175-0.952-2.127-2.127-2.127H25.707l12.969-4.578c0.011-0.004,0.021-0.009,0.032-0.013
	c0.05-0.019,0.1-0.04,0.149-0.062c0.02-0.009,0.039-0.018,0.058-0.027c0.051-0.026,0.101-0.054,0.15-0.083
	c0.016-0.01,0.032-0.018,0.048-0.028c0.051-0.033,0.101-0.069,0.15-0.107c0.012-0.009,0.025-0.018,0.037-0.027
	c0.059-0.048,0.117-0.099,0.172-0.154l43.761-43.761h18.466v45.432L74.368,263.89c-0.205,0.1-0.399,0.232-0.57,0.403l-17.387,17.554
	H-12.825z M111.699,251.336h-3.924c-1.175,0-2.127,0.952-2.127,2.127s0.952,2.127,2.127,2.127h3.924v6.408h-3.924
	c-1.175,0-2.127,0.952-2.127,2.126s0.952,2.126,2.127,2.126h3.924v6.408h-3.924c-1.175,0-2.127,0.952-2.127,2.126
	s0.952,2.126,2.127,2.126h3.924v6.408h-3.924c-1.175,0-2.127,0.952-2.127,2.127c0,1.175,0.952,2.126,2.127,2.126h3.924v10.143
	H46.556l27.196-27.346c0.13-0.067,0.256-0.143,0.373-0.238c0.056-0.045,0.11-0.094,0.162-0.146c0.001-0.001,0,0,0.001-0.001
	l37.411-37.411V251.336z"/>
</svg>
