<?xml version="1.0" encoding="iso-8859-1"?>
<!-- Generator: Adobe Illustrator 22.0.0, SVG Export Plug-In . SVG Version: 6.00 Build 0)  -->
<svg version="1.1" id="Capa_1" xmlns="http://www.w3.org/2000/svg" xmlns:xlink="http://www.w3.org/1999/xlink" x="0px" y="0px"
	 viewBox="-49 141 185.016 177.517" style="enable-background:new -49 141 185.016 177.517;" xml:space="preserve">
<path style="fill:#FFFFFF;" d="M118.22,296.457l-0.075-1.184l-1.259-19.796c-0.608-9.555-6.826-17.788-15.842-20.974l-29.62-10.468
	c-1.791-0.633-3.789-0.57-5.536,0.164c-0.093,0.039-0.184,0.081-0.274,0.123l-7.087-2.187l-0.001-5.882
	c7.357-4.937,13.039-13.908,13.369-22.22h0.208c3.233,0,5.864-2.631,5.864-5.864v-5.496c0-0.713-0.134-1.394-0.369-2.027
	c1.42-0.765,2.39-2.28,2.39-4.023v-3.069c0-2.225-1.581-4.083-3.663-4.476v-0.873c0-0.257-0.003-0.514-0.009-0.77
	c-0.062-2.458-0.436-4.884-1.104-7.225l0.003-0.001c0,0-0.056-0.204-0.17-0.562c-0.019-0.063-0.036-0.127-0.056-0.19
	c-0.013-0.042-0.03-0.082-0.045-0.122c-0.571-1.722-2.063-5.662-4.627-8.802c-4.681-6.05-11.506-9.931-18.969-10.813
	c-1.217-2.38-3.692-4.014-6.543-4.014h-2.592c-2.852,0-5.327,1.634-6.544,4.015c-6.452,0.762-12.453,3.763-17.025,8.549
	c-4.941,5.172-7.762,11.979-7.945,19.165c-0.006,0.256-0.01,0.512-0.01,0.769v0.873c-2.082,0.394-3.663,2.251-3.663,4.476v3.069
	c0,1.743,0.97,3.258,2.39,4.023c-0.234,0.633-0.369,1.314-0.369,2.027v5.496c0,3.233,2.631,5.864,5.864,5.864h0.207
	c0.306,8.319,6,17.33,13.37,22.279l-0.001,5.824l-7.088,2.187c-1.811-0.848-3.923-0.954-5.808-0.287l-29.621,10.469
	c-9.016,3.186-15.234,11.419-15.841,20.974l-0.853,12.481c-0.011,0.171,0,0.338,0.027,0.5l-0.508,7.999v0
	c-0.008,0.119-0.012,0.238-0.013,0.356c-0.019,1.659,0.565,3.285,1.636,4.552c0.076,0.09,0.156,0.179,0.237,0.266
	c0.163,0.173,0.333,0.337,0.512,0.492c1.248,1.08,2.861,1.689,4.522,1.689h0h21.505h92.626h21.505c0.356,0,0.71-0.028,1.058-0.082
	c1.51-0.236,2.92-0.972,3.976-2.098c1.221-1.301,1.893-3.039,1.873-4.817C118.232,296.694,118.227,296.576,118.22,296.457z
	 M-4.994,299.432H-24.31c-0.616,0-1.194-0.217-1.653-0.616c-0.065-0.057-0.128-0.118-0.189-0.182
	c-0.424-0.452-0.663-1.025-0.686-1.636c-0.003-0.087-0.002-0.175,0.004-0.264l0.613-9.644c0.01-0.16,0.002-0.317-0.021-0.47
	l0.742-10.866c0.496-7.801,5.571-14.522,12.93-17.123l7.575-2.677V299.432z M66.736,248.64l0.705-0.339
	c0.029-0.014,0.059-0.024,0.088-0.037c0.762-0.339,1.649-0.378,2.436-0.1l5.443,1.924l-16.096,12.283
	c-0.607,0.464-1.332,0.708-2.096,0.708c-0.675,0-1.329-0.196-1.894-0.566l-7.373-4.836L66.736,248.64z M73.589,208.169
	c0,0.819-0.666,1.485-1.485,1.485h-0.188v-8.467h0.188c0.819,0,1.485,0.666,1.485,1.485V208.169z M39.246,163.056
	c0-0.238,0.032-0.48,0.099-0.74c0.003-0.013,0.005-0.027,0.008-0.039c0.342-1.261,1.493-2.192,2.861-2.192h2.592
	c1.368,0,2.519,0.931,2.861,2.192c0.003,0.013,0.004,0.027,0.008,0.039c0.067,0.259,0.099,0.501,0.099,0.74v9.26
	c0,0.818-0.331,1.56-0.867,2.097c-0.001,0.001-0.001,0.002-0.002,0.003c-0.027,0.027-0.056,0.051-0.084,0.077
	c-0.53,0.491-1.236,0.794-2.014,0.794h-2.592c-0.778,0-1.484-0.303-2.014-0.794c-0.028-0.026-0.058-0.05-0.084-0.077
	c-0.001-0.001-0.001-0.002-0.002-0.003c-0.535-0.538-0.867-1.279-0.867-2.097V163.056z M15.1,209.654h-0.188
	c-0.819,0-1.485-0.666-1.485-1.485v-5.496c0-0.819,0.666-1.485,1.485-1.485H15.1V209.654z M11.513,196.798
	c-0.036,0-0.107-0.062-0.107-0.175v-3.069c0-0.113,0.071-0.175,0.107-0.175h1.366c1.209,0,2.189-0.98,2.189-2.189v-2.986
	c0-0.22,0.003-0.44,0.008-0.659c0.293-11.552,8.793-21.327,19.791-23.284v8.054v0.004c0,1.999,0.804,3.813,2.103,5.139
	c0.017,0.017,0.033,0.035,0.05,0.053c0.018,0.018,0.037,0.035,0.055,0.052c1.325,1.299,3.137,2.102,5.134,2.102h0.004h2.592h0.004
	c1.997,0,3.809-0.803,5.134-2.102c0.018-0.018,0.037-0.034,0.055-0.052c0.017-0.017,0.033-0.035,0.05-0.053
	c1.3-1.326,2.103-3.14,2.103-5.139v-0.004v-8.056c5.712,1.008,10.897,4.123,14.571,8.791l-0.008,0.007c0,0,0.068,0.076,0.186,0.22
	c0.076,0.099,0.156,0.194,0.23,0.294c0.022,0.029,0.046,0.055,0.068,0.083c0.814,1.06,2.47,3.464,3.525,6.668
	c0.014,0.15,0.044,0.302,0.091,0.451c0.688,2.181,1.067,4.46,1.125,6.771c0.006,0.219,0.008,0.438,0.008,0.659v2.986
	c0,1.209,0.98,2.189,2.189,2.189h1.367c0.036,0,0.107,0.062,0.107,0.175v3.069c0,0.113-0.071,0.175-0.107,0.175H11.513z
	 M19.479,213.332v-1.489v-10.656h48.059v10.656v1.431c0,7.541-6.068,16.472-13.186,20.387c-0.016,0.009-0.032,0.017-0.047,0.026
	c-0.23,0.126-0.462,0.245-0.694,0.36c-0.039,0.019-0.077,0.039-0.116,0.057C53,234.346,52.501,234.561,52,234.75
	c-0.067,0.025-0.135,0.049-0.202,0.073c-0.184,0.067-0.368,0.129-0.553,0.189c-0.071,0.023-0.142,0.046-0.213,0.068
	c-0.244,0.074-0.489,0.144-0.733,0.205l-0.286,0.071c-1.402,0.349-2.6,0.624-3.678,0.812c-1.079,0.188-2.038,0.289-2.965,0.289
	c-1.631,0-3.305-0.301-5.626-0.862c-0.014-0.004-0.028-0.006-0.042-0.01c-0.046-0.011-0.093-0.023-0.139-0.034
	c-0.293-0.072-0.594-0.146-0.909-0.225c-0.243-0.061-0.485-0.132-0.728-0.206l-0.21-0.068c-0.034-0.011-0.067-0.023-0.1-0.034
	c-0.149-0.049-0.297-0.1-0.445-0.154c-0.07-0.025-0.14-0.05-0.208-0.076c-0.011-0.004-0.022-0.009-0.034-0.013
	c-0.497-0.19-0.991-0.405-1.482-0.647c-0.015-0.007-0.029-0.015-0.044-0.022C25.978,230.426,19.479,221.123,19.479,213.332z
	 M17.051,248.163c0.817-0.288,1.744-0.238,2.524,0.137l19.492,9.375l-7.374,4.836c-0.565,0.37-1.219,0.566-1.893,0.566c0,0,0,0,0,0
	c-0.764,0-1.489-0.245-2.096-0.708l-16.096-12.283L17.051,248.163z M41.319,299.432H-0.616v-45.025l7.292-2.577l18.373,14.02
	c1.357,1.036,3.045,1.606,4.752,1.606c0,0,0,0,0.001,0c1.529,0,3.014-0.444,4.294-1.283l7.223-4.737V299.432z M32.049,249.441
	l-4.842-2.329l2.989-0.922c1.598-0.493,2.671-1.947,2.671-3.619l0.001-3.904c0.455,0.186,0.912,0.354,1.373,0.506
	c0.043,0.014,0.085,0.03,0.129,0.044l0.02,0.006c0.103,0.033,0.206,0.067,0.309,0.098c0.322,0.098,0.612,0.18,0.886,0.249
	c0.746,0.188,1.442,0.357,2.102,0.506c0.194,0.044,0.385,0.086,0.573,0.126c0.023,0.005,0.046,0.01,0.069,0.015
	c1.853,0.394,3.426,0.613,5.011,0.616c0.01,0,0.02,0,0.029,0c0,0,0.001,0,0.001,0c1.725,0,3.431-0.254,5.498-0.71
	c0.689-0.152,1.418-0.326,2.202-0.521l0.286-0.071c0.294-0.073,0.588-0.157,0.883-0.245c0.094-0.028,0.187-0.058,0.281-0.087
	c0.201-0.064,0.403-0.132,0.605-0.203c0.108-0.038,0.217-0.074,0.325-0.114c0.233-0.087,0.466-0.178,0.699-0.274l0.001,3.961
	c0,1.672,1.073,3.126,2.67,3.618l2.989,0.923l-16.3,7.84L32.049,249.441z M87.632,299.432H45.697v-37.996l7.223,4.737
	c1.28,0.84,2.765,1.283,4.295,1.283c1.707,0,3.395-0.57,4.752-1.606l18.373-14.02l7.292,2.577V299.432z M113.485,298.219
	c-0.09,0.147-0.196,0.286-0.318,0.415c-0.483,0.515-1.137,0.798-1.841,0.798H92.011v-43.478l7.575,2.677
	c0.69,0.244,1.36,0.524,2.008,0.838c6.263,3.033,10.473,9.216,10.923,16.285l1.334,20.98c0.006,0.088,0.007,0.176,0.003,0.264
	C113.837,297.435,113.711,297.851,113.485,298.219z"/>
</svg>
