<?xml version="1.0" encoding="iso-8859-1"?>
<!-- Generator: Adobe Illustrator 22.0.0, SVG Export Plug-In . SVG Version: 6.00 Build 0)  -->
<svg version="1.1" id="Layer_1" xmlns="http://www.w3.org/2000/svg" xmlns:xlink="http://www.w3.org/1999/xlink" x="0px" y="0px"
	 viewBox="0 0 45.413 35.014" style="enable-background:new 0 0 45.413 35.014;" xml:space="preserve">
<g id="Layer_3">
	<path style="fill:#F16322;" d="M32.474,1.583H12.935c-3.393,0-6.152,2.759-6.152,6.157v19.539c0,3.393,2.759,6.152,6.152,6.152
		h19.539c3.398,0,6.157-2.759,6.157-6.152V14.238V7.74C38.63,4.342,35.871,1.583,32.474,1.583z M34.242,5.25h0.705v5.397
		l-5.38,0.017l-0.023-5.397L34.242,5.25z M18.161,14.238c1.018-1.415,2.676-2.335,4.542-2.335c1.874,0,3.53,0.925,4.549,2.335
		c0.661,0.921,1.057,2.048,1.057,3.267c0,3.095-2.516,5.605-5.607,5.605c-3.089,0-5.605-2.511-5.605-5.605
		C17.104,16.286,17.494,15.158,18.161,14.238z M35.524,27.279c0,1.686-1.366,3.047-3.051,3.047H12.935
		c-1.686,0-3.051-1.36-3.051-3.047V14.238h4.753c-0.408,1.008-0.639,2.115-0.639,3.267c0,4.802,3.904,8.711,8.706,8.711
		c4.809,0,8.713-3.909,8.713-8.711c0-1.152-0.237-2.259-0.644-3.267h4.752v13.041H35.524z"/>
</g>
</svg>
