<?xml version="1.0" encoding="iso-8859-1"?>
<!-- Generator: Adobe Illustrator 22.0.0, SVG Export Plug-In . SVG Version: 6.00 Build 0)  -->
<svg version="1.1" id="Layer_1" xmlns="http://www.w3.org/2000/svg" xmlns:xlink="http://www.w3.org/1999/xlink" x="0px" y="0px"
	 viewBox="0 0 416.422 302.456" style="enable-background:new 0 0 416.422 302.456;" xml:space="preserve">
<g>
	<path style="fill:#FFFFFF;" d="M4.842,151.76c0-2.366,0.618-4.733,1.854-6.853L84.033,12.256c2.472-4.242,7.042-6.853,11.986-6.853
		c4.945,0,9.514,2.611,11.986,6.853l23.632,40.534l23.633-40.534c2.472-4.242,7.042-6.853,11.986-6.853
		c4.944,0,9.514,2.611,11.986,6.853l107.071,183.65l25.736-44.146L238.709,25.962c-2.472-4.239-2.472-9.467,0-13.706
		c2.472-4.242,7.042-6.853,11.986-6.853h71.237c4.944,0,9.514,2.611,11.986,6.853l77.337,132.651c2.472,4.239,2.472,9.467,0,13.706
		l-77.337,132.651c-2.472,4.242-7.042,6.853-11.986,6.853c-4.945,0-9.514-2.611-11.986-6.853l-23.632-40.534l-23.631,40.534
		c-2.472,4.242-7.042,6.853-11.986,6.853c-4.944,0-9.514-2.611-11.986-6.853l-107.07-183.65l-25.737,44.146l73.343,125.798
		c2.472,4.239,2.472,9.467,0,13.706c-2.472,4.242-7.042,6.853-11.986,6.853H96.019c-4.944,0-9.514-2.611-11.986-6.853L6.696,158.613
		C5.46,156.494,4.842,154.126,4.842,151.76z M96.019,46.521L34.664,151.76l69.346,118.945h39.274L77.932,158.613
		c-2.472-4.239-2.472-9.467,0-13.706l37.724-64.705L96.019,46.521z M167.257,46.521L147.62,80.202l103.076,176.797l19.637-33.681
		L167.257,46.521z M313.941,32.815h-39.273l65.351,112.092c2.472,4.239,2.472,9.467,0,13.706l-37.724,64.705l19.637,33.681
		l61.355-105.239L313.941,32.815z"/>
</g>
</svg>
