<?xml version="1.0" encoding="iso-8859-1"?>
<!-- Generator: Adobe Illustrator 22.0.0, SVG Export Plug-In . SVG Version: 6.00 Build 0)  -->
<svg version="1.1" id="Layer_1" xmlns="http://www.w3.org/2000/svg" xmlns:xlink="http://www.w3.org/1999/xlink" x="0px" y="0px"
	 viewBox="0 0 1224 607.47" style="enable-background:new 0 0 1224 607.47;" xml:space="preserve">
<g>
	<g>
		<path style="fill:#504D50;" d="M580.223,182.557c4.294,0,5.367,2.04,4.025,4.897l-66.83,131.43h59.045
			c2.683,0,4.294,1.021,4.294,3.265v20.205c0,2.04-1.611,3.265-4.294,3.47H472.063c-4.294,0-5.636-2.04-4.025-4.897L534.864,209.7
			h-55.555c-2.683,0-4.294-1.225-4.294-3.265v-20.409c0-2.244,1.611-3.265,4.294-3.47H580.223z"/>
		<path style="fill:#504D50;" d="M760.842,345.824c-2.414,0-3.756-1.021-4.294-2.857l-7.516-29.796h-47.77l-7.247,29.796
			c-0.538,1.836-1.88,2.857-4.294,2.857h-28.717c-2.952,0-4.294-1.225-3.491-3.47l44.552-156.941
			c0.538-2.04,2.149-2.857,4.563-2.857h37.305c2.414,0,4.025,0.817,4.563,2.857l44.552,156.941c0.535,2.244-0.538,3.47-3.76,3.47
			H760.842z M725.147,218.271l-17.177,71.225h34.353L725.147,218.271z"/>
		<path style="fill:#504D50;" d="M947.104,182.557c2.952,0,4.294,1.225,4.294,3.265v20.409c0,2.04-1.342,3.265-4.294,3.265h-31.132
			v133.063c0,2.244-1.341,3.265-4.294,3.265h-27.91c-2.687,0-4.294-1.021-4.294-3.265V209.496h-31.135
			c-2.683,0-4.294-1.225-4.294-3.265v-20.409c0-2.04,1.611-3.265,4.294-3.265H947.104z"/>
		<path style="fill:#504D50;" d="M1021.18,211.945c0-19.184,13.417-29.388,38.647-29.388h30.059
			c25.227,0,38.647,10.204,38.647,29.388v104.491c0,19.184-13.42,29.388-38.647,29.388h-30.059
			c-25.23,0-38.647-10.204-38.647-29.388V211.945z M1083.174,319.497c6.978,0,10.737-2.653,10.737-8.163v-94.288
			c0-5.306-3.76-8.163-10.737-8.163h-15.566c-6.978,0-10.734,2.857-10.734,8.163v94.288c0,5.51,3.756,8.163,10.734,8.163H1083.174z"
			/>
	</g>
	<g>
		<path style="fill:#F16322;" d="M485.262,401.151c0,0.434-0.271,0.697-0.714,0.697h-4.459c-0.492,0-0.714-0.262-0.714-0.697v-3.477
			c0-1.131-0.624-1.739-1.782-1.739h-2.32c-1.203,0-1.782,0.609-1.782,1.739v19.824c0,1.175,0.624,1.739,1.782,1.739h2.32
			c1.158,0,1.782-0.565,1.782-1.739v-3.477c0-0.434,0.222-0.697,0.714-0.697h4.459c0.444,0,0.714,0.262,0.714,0.697v4.696
			c0,4.086-2.275,6.26-6.422,6.26h-4.993c-4.192,0-6.467-2.174-6.467-6.26v-22.26c0-4.088,2.275-6.261,6.467-6.261h4.993
			c4.147,0,6.422,2.174,6.422,6.261V401.151z"/>
		<path style="fill:#F16322;" d="M507.562,396.456c0-4.088,2.23-6.261,6.422-6.261h4.994c4.192,0,6.422,2.174,6.422,6.261v22.26
			c0,4.086-2.23,6.26-6.422,6.26h-4.994c-4.192,0-6.422-2.174-6.422-6.26V396.456z M517.861,419.367
			c1.162,0,1.786-0.565,1.786-1.738v-20.087c0-1.129-0.624-1.738-1.786-1.738h-2.583c-1.162,0-1.786,0.609-1.786,1.738v20.087
			c0,1.173,0.624,1.738,1.786,1.738H517.861z"/>
		<path style="fill:#F16322;" d="M566.027,390.195c0.447,0,0.714,0.26,0.714,0.697v33.39c0,0.434-0.267,0.695-0.714,0.695h-4.414
			c-0.402,0-0.669-0.174-0.801-0.565l-6.824-18.565h-0.222v18.434c0,0.434-0.222,0.695-0.714,0.695h-4.636
			c-0.447,0-0.714-0.26-0.714-0.695v-33.39c0-0.436,0.267-0.697,0.714-0.697h4.414c0.402,0,0.669,0.174,0.801,0.565l6.779,18.478
			h0.267v-18.346c0-0.436,0.222-0.697,0.714-0.697H566.027z"/>
		<path style="fill:#F16322;" d="M600.458,390.195c4.192,0,6.422,2.174,6.422,6.261v4.608c0,0.434-0.226,0.695-0.714,0.695h-4.636
			c-0.447,0-0.714-0.26-0.714-0.695v-3.391c0-1.131-0.579-1.739-1.786-1.739h-2.139c-1.113,0-1.782,0.609-1.782,1.739v5.999
			l10.611,3.391c0.76,0.304,1.162,0.783,1.162,1.608v10.045c0,4.086-2.23,6.26-6.422,6.26h-4.994c-4.147,0-6.422-2.174-6.422-6.26
			v-4.566c0-0.478,0.267-0.695,0.714-0.695h4.636c0.492,0,0.714,0.216,0.714,0.695v3.347c0,1.175,0.669,1.739,1.782,1.739h2.139
			c1.162,0,1.786-0.565,1.786-1.739v-5.781l-10.569-3.391c-0.801-0.262-1.203-0.783-1.203-1.609v-10.259
			c0-4.088,2.275-6.261,6.422-6.261H600.458z"/>
		<path style="fill:#F16322;" d="M644.522,390.195c0.489,0,0.714,0.26,0.714,0.697v4.346c0,0.436-0.226,0.697-0.714,0.697h-5.174
			v28.347c0,0.477-0.222,0.695-0.714,0.695h-4.636c-0.447,0-0.714-0.218-0.714-0.695v-28.347h-5.17c-0.447,0-0.714-0.26-0.714-0.697
			v-4.346c0-0.436,0.267-0.697,0.714-0.697H644.522z"/>
		<path style="fill:#F16322;" d="M684.969,407.064c0,2.913-1.113,4.826-3.256,5.739l3.079,11.39
			c0.132,0.522-0.135,0.783-0.624,0.783h-4.64c-0.444,0-0.669-0.218-0.756-0.609l-2.989-11.044h-3.076v10.958
			c0,0.434-0.267,0.695-0.714,0.695h-4.636c-0.447,0-0.714-0.26-0.714-0.695v-33.39c0-0.436,0.267-0.697,0.714-0.697h11.19
			c4.192,0,6.422,2.174,6.422,6.261V407.064z M677.121,407.586c1.158,0,1.782-0.61,1.782-1.739v-8.173
			c0-1.131-0.624-1.739-1.782-1.739h-4.414v11.652H677.121z"/>
		<path style="fill:#F16322;" d="M724.216,390.195c0.489,0,0.891,0.39,0.891,0.869v27.653c0,4.086-2.23,6.26-6.422,6.26h-4.993
			c-4.192,0-6.422-2.174-6.422-6.26v-27.653c0-0.478,0.402-0.869,0.891-0.869h4.283c0.489,0,0.891,0.39,0.891,0.869v26.434
			c0,1.175,0.624,1.739,1.782,1.739h2.32c1.158,0,1.782-0.565,1.782-1.739v-26.434c0-0.478,0.402-0.869,0.891-0.869H724.216z"/>
		<path style="fill:#F16322;" d="M765.29,401.151c0,0.434-0.271,0.697-0.714,0.697h-4.459c-0.492,0-0.714-0.262-0.714-0.697v-3.477
			c0-1.131-0.624-1.739-1.782-1.739h-2.32c-1.203,0-1.782,0.609-1.782,1.739v19.824c0,1.175,0.624,1.739,1.782,1.739h2.32
			c1.158,0,1.782-0.565,1.782-1.739v-3.477c0-0.434,0.222-0.697,0.714-0.697h4.459c0.444,0,0.714,0.262,0.714,0.697v4.696
			c0,4.086-2.275,6.26-6.422,6.26h-4.993c-4.193,0-6.467-2.174-6.467-6.26v-22.26c0-4.088,2.275-6.261,6.467-6.261h4.993
			c4.147,0,6.422,2.174,6.422,6.261V401.151z"/>
		<path style="fill:#F16322;" d="M805.474,401.151c0,0.434-0.27,0.697-0.714,0.697h-4.46c-0.492,0-0.714-0.262-0.714-0.697v-3.477
			c0-1.131-0.624-1.739-1.782-1.739h-2.32c-1.203,0-1.782,0.609-1.782,1.739v19.824c0,1.175,0.624,1.739,1.782,1.739h2.32
			c1.158,0,1.782-0.565,1.782-1.739v-3.477c0-0.434,0.222-0.697,0.714-0.697h4.46c0.444,0,0.714,0.262,0.714,0.697v4.696
			c0,4.086-2.275,6.26-6.422,6.26h-4.994c-4.193,0-6.467-2.174-6.467-6.26v-22.26c0-4.088,2.275-6.261,6.467-6.261h4.994
			c4.147,0,6.422,2.174,6.422,6.261V401.151z"/>
		<path style="fill:#F16322;" d="M833.122,390.195c0.447,0,0.714,0.26,0.714,0.697v33.39c0,0.434-0.267,0.695-0.714,0.695h-4.636
			c-0.492,0-0.714-0.26-0.714-0.695v-33.39c0-0.436,0.222-0.697,0.714-0.697H833.122z"/>
		<path style="fill:#F16322;" d="M856.137,396.456c0-4.088,2.23-6.261,6.422-6.261h4.993c4.192,0,6.422,2.174,6.422,6.261v22.26
			c0,4.086-2.23,6.26-6.422,6.26h-4.993c-4.192,0-6.422-2.174-6.422-6.26V396.456z M866.436,419.367
			c1.162,0,1.786-0.565,1.786-1.738v-20.087c0-1.129-0.624-1.738-1.786-1.738h-2.584c-1.162,0-1.786,0.609-1.786,1.738v20.087
			c0,1.173,0.624,1.738,1.786,1.738H866.436z"/>
		<path style="fill:#F16322;" d="M914.602,390.195c0.447,0,0.714,0.26,0.714,0.697v33.39c0,0.434-0.267,0.695-0.714,0.695h-4.414
			c-0.402,0-0.669-0.174-0.801-0.565l-6.824-18.565h-0.222v18.434c0,0.434-0.222,0.695-0.714,0.695h-4.636
			c-0.447,0-0.714-0.26-0.714-0.695v-33.39c0-0.436,0.267-0.697,0.714-0.697h4.414c0.402,0,0.669,0.174,0.801,0.565l6.779,18.478
			h0.267v-18.346c0-0.436,0.222-0.697,0.714-0.697H914.602z"/>
		<path style="fill:#F16322;" d="M955.41,395.238c0,0.436-0.18,0.74-0.714,0.74h-11.149v8.694h8.517c0.447,0,0.714,0.262,0.714,0.74
			v4.304c0,0.478-0.267,0.739-0.714,0.739h-8.517v8.782h11.149c0.534,0,0.714,0.218,0.714,0.697v4.348
			c0,0.434-0.18,0.695-0.714,0.695h-16.409c-0.402,0-0.669-0.26-0.669-0.695v-33.39c0-0.436,0.267-0.697,0.669-0.697h16.409
			c0.534,0,0.714,0.26,0.714,0.697V395.238z"/>
		<path style="fill:#F16322;" d="M987.787,390.195c4.192,0,6.422,2.174,6.422,6.261v4.608c0,0.434-0.226,0.695-0.714,0.695h-4.636
			c-0.447,0-0.714-0.26-0.714-0.695v-3.391c0-1.131-0.579-1.739-1.786-1.739h-2.14c-1.113,0-1.782,0.609-1.782,1.739v5.999
			l10.611,3.391c0.759,0.304,1.162,0.783,1.162,1.608v10.045c0,4.086-2.23,6.26-6.422,6.26h-4.993c-4.148,0-6.422-2.174-6.422-6.26
			v-4.566c0-0.478,0.267-0.695,0.714-0.695h4.636c0.492,0,0.714,0.216,0.714,0.695v3.347c0,1.175,0.669,1.739,1.782,1.739h2.14
			c1.162,0,1.786-0.565,1.786-1.739v-5.781l-10.569-3.391c-0.801-0.262-1.203-0.783-1.203-1.609v-10.259
			c0-4.088,2.275-6.261,6.422-6.261H987.787z"/>
	</g>
	<g>
		<path style="fill:#F16322;" d="M230.976,507.894c-2.366,0-4.733-0.618-6.853-1.854L91.471,428.703
			c-4.242-2.472-6.853-7.042-6.853-11.986c0-4.945,2.611-9.514,6.853-11.986l40.534-23.633l-40.534-23.633
			c-4.242-2.472-6.853-7.042-6.853-11.986c0-4.944,2.611-9.514,6.853-11.986l183.65-107.071l-44.146-25.736l-125.798,73.341
			c-4.239,2.472-9.467,2.472-13.706,0c-4.242-2.472-6.853-7.042-6.853-11.986v-71.237c0-4.944,2.611-9.514,6.853-11.986
			l132.651-77.337c4.239-2.472,9.467-2.472,13.706,0l132.651,77.337c4.242,2.472,6.853,7.042,6.853,11.986
			c0,4.945-2.611,9.514-6.853,11.986l-40.534,23.632l40.534,23.631c4.242,2.472,6.853,7.042,6.853,11.986
			c0,4.944-2.611,9.514-6.853,11.986l-183.65,107.07l44.146,25.737l125.798-73.343c4.239-2.472,9.467-2.472,13.706,0
			c4.242,2.472,6.853,7.042,6.853,11.986v71.238c0,4.944-2.611,9.514-6.853,11.986L237.829,506.04
			C235.709,507.276,233.341,507.894,230.976,507.894z M125.737,416.717l105.239,61.355l118.945-69.346v-39.274l-112.092,65.352
			c-4.239,2.472-9.467,2.472-13.706,0l-64.705-37.724L125.737,416.717z M125.737,345.479l33.681,19.638l176.797-103.076
			l-33.681-19.637L125.737,345.479z M112.03,198.794v39.273l112.092-65.351c4.239-2.472,9.467-2.472,13.706,0l64.705,37.724
			l33.681-19.637l-105.239-61.355L112.03,198.794z"/>
	</g>
</g>
</svg>
