<?xml version="1.0" encoding="iso-8859-1"?>
<!-- Generator: Adobe Illustrator 22.0.0, SVG Export Plug-In . SVG Version: 6.00 Build 0)  -->
<svg version="1.1" id="Capa_1" xmlns="http://www.w3.org/2000/svg" xmlns:xlink="http://www.w3.org/1999/xlink" x="0px" y="0px"
	 viewBox="0 0 512 512" style="enable-background:new 0 0 512 512;" xml:space="preserve">
<g>
	<path style="fill:#F16322;" d="M475.333,365.665c0,9.617-2.705,18.532-7.038,26.375L329.79,237.073l137.003-119.866
		c5.329,8.458,8.54,18.392,8.54,29.128L475.333,365.665L475.333,365.665z M256,265.211L446.636,98.409
		c-7.823-4.283-16.632-6.909-26.135-6.909H91.5c-9.514,0-18.326,2.626-26.118,6.909L256,265.211z M309.148,255.119l-44.127,38.635
		c-2.581,2.248-5.795,3.371-9.021,3.371c-3.228,0-6.442-1.123-9.023-3.371l-44.137-38.636L62.584,412.066
		c8.407,5.274,18.26,8.434,28.915,8.434h329.002c10.654,0,20.511-3.16,28.915-8.434L309.148,255.119z M45.209,117.207
		c-5.329,8.458-8.542,18.392-8.542,29.129v219.33c0,9.617,2.692,18.532,7.042,26.375l138.489-154.994L45.209,117.207z"/>
</g>
</svg>
