<?xml version="1.0" encoding="iso-8859-1"?>
<!-- Generator: Adobe Illustrator 22.0.0, SVG Export Plug-In . SVG Version: 6.00 Build 0)  -->
<svg version="1.1" id="Layer_1" xmlns="http://www.w3.org/2000/svg" xmlns:xlink="http://www.w3.org/1999/xlink" x="0px" y="0px"
	 viewBox="0 0 45.413 35.014" style="enable-background:new 0 0 45.413 35.014;" xml:space="preserve">
<g id="Layer_4">
	<g>
		<path style="fill:#F16322;" d="M22.707,0.938c-9.15,0-16.569,7.418-16.569,16.569c0,6.784,4.08,12.613,9.918,15.175
			c-0.047-1.157-0.008-2.546,0.288-3.805c0.319-1.345,2.132-9.028,2.132-9.028s-0.529-1.058-0.529-2.622
			c0-2.455,1.423-4.289,3.195-4.289c1.507,0,2.235,1.132,2.235,2.487c0,1.515-0.966,3.781-1.463,5.88
			c-0.415,1.758,0.881,3.191,2.615,3.191c3.139,0,5.253-4.032,5.253-8.809c0-3.631-2.446-6.349-6.894-6.349
			c-5.026,0-8.157,3.748-8.157,7.935c0,1.443,0.426,2.462,1.092,3.25c0.307,0.362,0.349,0.508,0.238,0.923
			c-0.079,0.305-0.262,1.039-0.338,1.33c-0.11,0.42-0.45,0.57-0.83,0.415c-2.315-0.945-3.393-3.48-3.393-6.33
			c0-4.707,3.969-10.35,11.842-10.35c6.326,0,10.489,4.578,10.489,9.491c0,6.5-3.613,11.355-8.94,11.355
			c-1.789,0-3.471-0.967-4.048-2.065c0,0-0.962,3.817-1.166,4.555c-0.351,1.278-1.039,2.554-1.668,3.549
			c1.49,0.44,3.064,0.679,4.696,0.679c9.149,0,16.568-7.418,16.568-16.569C39.275,8.356,31.856,0.938,22.707,0.938z"/>
	</g>
</g>
</svg>
