<?xml version="1.0" encoding="iso-8859-1"?>
<!-- Generator: Adobe Illustrator 22.0.0, SVG Export Plug-In . SVG Version: 6.00 Build 0)  -->
<svg version="1.1" id="Layer_1" xmlns="http://www.w3.org/2000/svg" xmlns:xlink="http://www.w3.org/1999/xlink" x="0px" y="0px"
	 viewBox="0 0 45.413 35.014" style="enable-background:new 0 0 45.413 35.014;" xml:space="preserve">
<path style="fill-rule:evenodd;clip-rule:evenodd;fill:#F16322;" d="M21.922,13.228c1.452-4.531,3.223-7.465,5.263-9.589
	c1.524-1.584,2.312-2.092,1.415-0.344c0.396-0.316,0.962-0.737,1.405-0.962c2.468-1.166,2.291-0.189,0.593,0.857
	c4.64-1.661,4.479,0.453-0.431,1.507c4.013,0.075,8.282,2.628,9.507,8.058c0.169,0.757-0.03,0.683,0.735,0.822
	c1.661,0.292,3.231,0.274,4.755-0.209c-0.167,1.123-1.651,1.856-3.965,2.336c-0.859,0.179-1.036,0.135-0.01,0.361
	c1.268,0.286,2.688,0.359,4.184,0.289c-1.168,1.343-3.026,2.03-5.325,2.06c-1.442,5.253-4.73,9.017-8.89,11.375
	c-9.769,5.547-23.991,4.743-31.117-5.335c4.677,3.671,11.612,4.481,16.758-0.64c-3.373,0-4.249-2.523-1.574-3.891
	c-2.533-0.025-4.137-0.822-5.084-2.277c-0.361-0.545-0.361-0.593,0.219-1.014c0.645-0.466,1.52-0.673,2.429-0.742
	c-2.623-0.752-4.224-2.12-4.777-3.953c-0.187-0.61-0.214-0.581,0.403-0.735c0.605-0.155,1.38-0.237,2.082-0.272
	c-2.06-1.248-3.29-2.775-3.604-4.468c-0.294-1.594,0.01-1.186,1.203-0.73C13.438,7.781,18.771,9.973,21.922,13.228z"/>
</svg>
