<?xml version="1.0" encoding="iso-8859-1"?>
<!-- Generator: Adobe Illustrator 22.0.0, SVG Export Plug-In . SVG Version: 6.00 Build 0)  -->
<svg version="1.1" id="Capa_1" xmlns="http://www.w3.org/2000/svg" xmlns:xlink="http://www.w3.org/1999/xlink" x="0px" y="0px"
	 viewBox="0 0 512 512" style="enable-background:new 0 0 512 512;" xml:space="preserve">
<g>
	<g>
		<path style="fill:#F16322;" d="M460.112,380.068l-66.003-66.011c-13.147-13.094-34.918-12.696-48.522,0.914l-33.253,33.245
			c-2.101-1.158-4.275-2.367-6.562-3.65c-20.999-11.635-49.739-27.582-79.982-57.848c-30.333-30.329-46.295-59.114-57.966-80.126
			c-1.232-2.226-2.411-4.372-3.577-6.411l22.317-22.284l10.972-10.986c13.625-13.629,14.001-35.394,0.885-48.526l-66.003-66.018
			c-13.116-13.113-34.897-12.716-48.522,0.914L65.295,71.99l0.508,0.505c-6.237,7.959-11.45,17.138-15.329,27.037
			c-3.576,9.423-5.802,18.414-6.819,27.424c-8.715,72.252,24.302,138.285,113.906,227.89
			c123.86,123.851,223.674,114.495,227.98,114.038c9.378-1.121,18.366-3.362,27.5-6.909c9.813-3.833,18.986-9.038,26.94-15.262
			l0.406,0.361l18.845-18.453C472.83,414.993,473.222,393.221,460.112,380.068z"/>
	</g>
</g>
</svg>
